# Blender v3.4.1 OBJ File: 'Prototype_Bits_Export.blend'
# www.blender.org
mtllib Bullet.mtl
o Bullet_Cylinder.166
v 0.000000 0.000000 -0.112500
v 0.000000 0.037500 0.066250
v 0.000000 0.037500 0.046250
v 0.000000 0.029306 0.056250
v 0.026517 0.026517 0.046250
v 0.026517 0.026517 0.066250
v 0.020723 0.020723 0.056250
v 0.037500 -0.000000 0.046250
v 0.037500 -0.000000 0.066250
v 0.029306 -0.000000 0.056250
v 0.026517 -0.026517 0.046250
v 0.026517 -0.026517 0.066250
v 0.020723 -0.020723 0.056250
v -0.000000 -0.037500 0.046250
v -0.000000 -0.037500 0.066250
v -0.000000 -0.029306 0.056250
v -0.026517 -0.026517 0.046250
v -0.026517 -0.026517 0.066250
v -0.020723 -0.020723 0.056250
v -0.037500 -0.000000 0.046250
v -0.037500 -0.000000 0.066250
v -0.029306 -0.000000 0.056250
v -0.026517 0.026517 0.046250
v -0.026517 0.026517 0.066250
v -0.020723 0.020723 0.056250
v 0.000000 0.037500 0.097514
v 0.000000 -0.000000 0.112500
v 0.000000 0.025326 0.109181
v 0.026517 0.026517 0.097514
v 0.017908 0.017908 0.109181
v 0.037500 -0.000000 0.097514
v 0.025326 -0.000000 0.109181
v 0.026517 -0.026517 0.097514
v 0.017908 -0.017908 0.109181
v -0.000000 -0.037500 0.097514
v -0.000000 -0.025326 0.109181
v -0.026517 -0.026517 0.097514
v -0.017908 -0.017908 0.109181
v -0.037500 -0.000000 0.097514
v -0.025326 -0.000000 0.109181
v -0.026517 0.026517 0.097514
v -0.017908 0.017908 0.109181
v 0.000000 0.037500 -0.112500
v 0.026517 0.026517 -0.112500
v 0.037500 0.000000 -0.112500
v 0.026517 -0.026517 -0.112500
v -0.000000 -0.037500 -0.112500
v -0.026517 -0.026517 -0.112500
v -0.037500 0.000000 -0.112500
v -0.026517 0.026517 -0.112500
vt 0.931728 0.860963
vt 0.931728 0.906182
vt 0.941432 0.906182
vt 0.941432 0.860963
vt 0.681728 0.821742
vt 0.681728 0.879807
vt 0.691432 0.879807
vt 0.691432 0.821742
vt 0.955145 0.860963
vt 0.955145 0.906182
vt 0.951137 0.906182
vt 0.951137 0.860963
vt 0.677705 0.821742
vt 0.677705 0.879807
vt 0.681728 0.821742
vt 0.681728 0.879807
vt 0.691432 0.821742
vt 0.691432 0.879807
vt 0.927705 0.860963
vt 0.927705 0.906182
vt 0.701137 0.821742
vt 0.701137 0.879807
vt 0.931728 0.860963
vt 0.931728 0.906182
vt 0.705145 0.821742
vt 0.705145 0.879807
vt 0.941432 0.860963
vt 0.941432 0.906182
vt 0.701137 0.821742
vt 0.701137 0.879807
vt 0.931728 0.827857
vt 0.941432 0.827857
vt 0.941432 0.823982
vt 0.933851 0.823982
vt 0.683851 0.914715
vt 0.691432 0.914715
vt 0.691432 0.911057
vt 0.681728 0.911057
vt 0.927705 0.827857
vt 0.930715 0.823982
vt 0.680715 0.914715
vt 0.677705 0.911057
vt 0.931728 0.827857
vt 0.933851 0.823982
vt 0.683851 0.914715
vt 0.681728 0.911057
vt 0.941432 0.827857
vt 0.941432 0.823982
vt 0.691432 0.914715
vt 0.691432 0.911057
vt 0.951137 0.827857
vt 0.949013 0.823982
vt 0.699013 0.914715
vt 0.701137 0.911057
vt 0.955145 0.827857
vt 0.952149 0.823982
vt 0.702149 0.914715
vt 0.705145 0.911057
vt 0.951137 0.827857
vt 0.949013 0.823982
vt 0.699013 0.914715
vt 0.701137 0.911057
vt 0.951137 0.860963
vt 0.951137 0.906182
vt 0.951137 0.925537
vt 0.941432 0.925537
vt 0.941432 0.946610
vt 0.947986 0.946610
vt 0.941432 0.947896
vt 0.955145 0.925537
vt 0.950701 0.946610
vt 0.951137 0.925537
vt 0.947986 0.946610
vt 0.941432 0.925537
vt 0.941432 0.946610
vt 0.931728 0.925537
vt 0.934878 0.946610
vt 0.927705 0.925537
vt 0.932164 0.946610
vt 0.931728 0.925537
vt 0.934878 0.946610
vt 0.691432 0.790492
vt 0.691432 0.790492
vt 0.701137 0.790492
vt 0.705145 0.790492
vt 0.701137 0.790492
vt 0.691432 0.790492
vt 0.681728 0.790492
vt 0.677705 0.790492
vt 0.681728 0.790492
vn -0.6716 0.6716 -0.3130
vn -0.6592 0.6592 0.3616
vn -0.0000 0.9323 0.3616
vn -0.0000 0.9497 -0.3130
vn -0.7071 0.7071 0.0000
vn -0.0000 1.0000 0.0000
vn 0.9497 -0.0000 -0.3130
vn 0.9323 -0.0000 0.3616
vn 0.6592 -0.6592 0.3616
vn 0.6716 -0.6716 -0.3130
vn -1.0000 0.0000 0.0000
vn -0.7071 -0.7071 -0.0000
vn -0.0000 -1.0000 -0.0000
vn -0.9497 -0.0000 -0.3130
vn -0.9323 -0.0000 0.3616
vn 0.3827 -0.9239 -0.0000
vn -0.6716 -0.6716 -0.3130
vn -0.6592 -0.6592 0.3616
vn 1.0000 0.0000 0.0000
vn 0.9239 -0.3827 -0.0000
vn -0.0000 -0.9497 -0.3130
vn -0.0000 -0.9323 0.3616
vn 0.9239 0.3827 0.0000
vn 0.3827 0.9239 0.0000
vn 0.0000 0.7735 -0.6338
vn -0.5470 0.5470 -0.6338
vn -0.5470 0.5470 0.6338
vn -0.0000 0.7735 0.6338
vn -0.7735 0.0000 -0.6338
vn -0.7735 0.0000 0.6338
vn -0.5470 -0.5470 -0.6338
vn -0.5470 -0.5470 0.6338
vn -0.0000 -0.7735 -0.6338
vn -0.0000 -0.7735 0.6338
vn 0.5470 -0.5470 -0.6338
vn 0.5470 -0.5470 0.6338
vn 0.7735 0.0000 -0.6338
vn 0.7735 0.0000 0.6338
vn 0.6716 0.6716 -0.3130
vn 0.5470 0.5470 -0.6338
vn 0.5470 0.5470 0.6338
vn 0.6592 0.6592 0.3616
vn -0.0000 0.4912 0.8710
vn 0.3474 0.3474 0.8710
vn -0.0000 0.0000 1.0000
vn 0.4912 0.0000 0.8710
vn 0.3474 -0.3474 0.8710
vn 0.0000 -0.4912 0.8710
vn -0.3474 -0.3474 0.8710
vn -0.4912 0.0000 0.8710
vn -0.3474 0.3474 0.8710
vn -0.0000 -0.0000 -1.0000
usemtl prototype_texture
s 1
f 24/1/1 41/2/2 26/3/3 2/4/4
f 50/5/5 23/6/5 3/7/6 43/8/6
f 9/9/7 31/10/8 33/11/9 12/12/10
f 49/13/11 20/14/11 23/6/5 50/5/5
f 48/15/12 17/16/12 20/14/11 49/13/11
f 47/17/13 14/18/13 17/16/12 48/15/12
f 21/19/14 39/20/15 41/2/2 24/1/1
f 46/21/16 11/22/16 14/18/13 47/17/13
f 18/23/17 37/24/18 39/20/15 21/19/14
f 45/25/19 8/26/19 11/22/20 46/21/20
f 15/27/21 35/28/22 37/24/18 18/23/17
f 44/29/23 5/30/23 8/26/19 45/25/19
f 12/12/10 33/11/9 35/28/22 15/27/21
f 43/8/6 3/7/6 5/30/24 44/29/24
f 24/31/1 2/32/4 4/33/25 25/34/26
f 25/35/27 4/36/28 3/37/28 23/38/27
f 21/39/14 24/31/1 25/34/26 22/40/29
f 22/41/30 25/35/27 23/38/27 20/42/30
f 18/43/17 21/39/14 22/40/29 19/44/31
f 19/45/32 22/41/30 20/42/30 17/46/32
f 15/47/21 18/43/17 19/44/31 16/48/33
f 16/49/34 19/45/32 17/46/32 14/50/34
f 12/51/10 15/47/21 16/48/33 13/52/35
f 13/53/36 16/49/34 14/50/34 11/54/36
f 9/55/7 12/51/10 13/52/35 10/56/37
f 10/57/38 13/53/36 11/54/36 8/58/38
f 6/59/39 9/55/7 10/56/37 7/60/40
f 7/61/41 10/57/38 8/58/38 5/62/41
f 2/32/4 6/59/39 7/60/40 4/33/25
f 4/36/28 7/61/41 5/62/41 3/37/28
f 6/63/39 29/64/42 31/10/8 9/9/7
f 29/65/42 26/66/3 28/67/43 30/68/44
f 30/68/44 28/67/43 27/69/45
f 31/70/8 29/65/42 30/68/44 32/71/46
f 32/71/46 30/68/44 27/69/45
f 33/72/9 31/70/8 32/71/46 34/73/47
f 34/73/47 32/71/46 27/69/45
f 35/74/22 33/72/9 34/73/47 36/75/48
f 36/75/48 34/73/47 27/69/45
f 37/76/18 35/74/22 36/75/48 38/77/49
f 38/77/49 36/75/48 27/69/45
f 39/78/15 37/76/18 38/77/49 40/79/50
f 40/79/50 38/77/49 27/69/45
f 41/80/2 39/78/15 40/79/50 42/81/51
f 42/81/51 40/79/50 27/69/45
f 26/66/3 41/80/2 42/81/51 28/67/43
f 28/67/43 42/81/51 27/69/45
f 2/4/4 26/3/3 29/64/42 6/63/39
f 1/82/52 43/83/52 44/84/52
f 1/82/52 44/84/52 45/85/52
f 1/82/52 45/85/52 46/86/52
f 1/82/52 46/86/52 47/87/52
f 1/82/52 47/87/52 48/88/52
f 1/82/52 48/88/52 49/89/52
f 1/82/52 49/89/52 50/90/52
f 1/82/52 50/90/52 43/83/52
