# Blender v3.4.1 OBJ File: 'Prototype_Bits_Export.blend'
# www.blender.org
mtllib Gun_Sniper_Scope.mtl
o Gun_Sniper_Scope_Cylinder.132
v 0.000089 0.454907 0.464818
v 0.000060 0.417519 -0.015020
v -0.052588 0.440792 0.464818
v -0.033923 0.408414 -0.015020
v -0.091150 0.402230 0.464818
v -0.058800 0.383536 -0.015020
v -0.105264 0.349554 0.464818
v -0.067906 0.349553 -0.015020
v -0.091150 0.296877 0.464818
v -0.058800 0.315571 -0.015020
v -0.052588 0.258315 0.464818
v -0.033923 0.290693 -0.015020
v 0.000089 0.244201 0.464818
v 0.000060 0.281588 -0.015020
v 0.052765 0.258315 0.464818
v 0.034043 0.290693 -0.015020
v 0.091327 0.296877 0.464818
v 0.058920 0.315571 -0.015020
v 0.105442 0.349554 0.464818
v 0.068026 0.349553 -0.015020
v 0.091327 0.402230 0.464818
v 0.058920 0.383536 -0.015020
v 0.052765 0.440792 0.464818
v 0.034043 0.408414 -0.015020
v 0.000090 0.481140 0.266056
v 0.000063 0.441958 0.059952
v -0.046139 0.429578 0.059952
v -0.065703 0.463511 0.266056
v -0.079962 0.395756 0.059952
v -0.113867 0.415347 0.266056
v -0.092341 0.349553 0.059952
v -0.131497 0.349554 0.266056
v -0.079962 0.303351 0.059952
v -0.113867 0.283760 0.266056
v -0.046139 0.269529 0.059952
v -0.065703 0.235597 0.266056
v 0.000063 0.257149 0.059952
v 0.000090 0.217967 0.266056
v 0.046265 0.269529 0.059952
v 0.065883 0.235597 0.266056
v 0.080088 0.303351 0.059952
v 0.114047 0.283760 0.266056
v 0.092468 0.349553 0.059952
v 0.131676 0.349554 0.266056
v 0.080088 0.395756 0.059952
v 0.114047 0.415347 0.266056
v 0.046265 0.429578 0.059952
v 0.065883 0.463511 0.266056
v 0.000081 0.417288 0.227575
v 0.000081 0.417288 0.117466
v -0.037986 0.408213 0.117466
v -0.037986 0.408213 0.227575
v -0.065853 0.383421 0.117466
v -0.065853 0.383421 0.227575
v -0.076053 0.349553 0.117466
v -0.076053 0.349553 0.227575
v -0.065853 0.315686 0.117466
v -0.065853 0.315686 0.227575
v -0.037986 0.290893 0.117466
v -0.037986 0.290893 0.227575
v 0.000081 0.281819 0.117466
v 0.000081 0.281819 0.227575
v 0.038148 0.290893 0.117466
v 0.038148 0.290893 0.227575
v 0.066015 0.315686 0.117466
v 0.066015 0.315686 0.227575
v 0.076215 0.349553 0.117466
v 0.076215 0.349553 0.227575
v 0.066015 0.383421 0.117466
v 0.066015 0.383421 0.227575
v 0.038148 0.408213 0.117466
v 0.038148 0.408213 0.227575
v 0.000090 0.481140 0.464817
v -0.065703 0.463511 0.464817
v -0.046139 0.429578 -0.015020
v 0.000063 0.441958 -0.015020
v -0.113867 0.415347 0.464817
v -0.079962 0.395756 -0.015020
v -0.131497 0.349554 0.464817
v -0.092341 0.349553 -0.015020
v -0.113867 0.283760 0.464817
v -0.079962 0.303351 -0.015020
v -0.065703 0.235597 0.464817
v -0.046139 0.269529 -0.015020
v 0.000090 0.217967 0.464817
v 0.000063 0.257149 -0.015020
v 0.065883 0.235597 0.464817
v 0.046265 0.269529 -0.015020
v 0.114047 0.283760 0.464817
v 0.080088 0.303351 -0.015020
v 0.131676 0.349554 0.464817
v 0.092468 0.349553 -0.015020
v 0.114047 0.415347 0.464817
v 0.080088 0.395756 -0.015020
v 0.065883 0.463511 0.464817
v 0.046265 0.429578 -0.015020
v 0.000083 0.349554 0.469376
v -0.027471 0.397233 0.004260
v 0.000057 0.404609 0.004260
v -0.047623 0.377081 0.004260
v -0.054999 0.349553 0.004260
v -0.047623 0.322026 0.004260
v -0.027471 0.301874 0.004260
v 0.000057 0.294498 0.004260
v 0.027585 0.301874 0.004260
v 0.047736 0.322026 0.004260
v 0.055112 0.349553 0.004260
v 0.047736 0.377081 0.004260
v 0.027585 0.397233 0.004260
v 0.000084 0.439074 0.433052
v -0.044676 0.427081 0.433052
v -0.077442 0.394314 0.433052
v -0.089436 0.349554 0.433052
v -0.077442 0.304794 0.433052
v -0.044676 0.272027 0.433052
v 0.000084 0.260033 0.433052
v 0.044845 0.272027 0.433052
v 0.077611 0.304794 0.433052
v 0.089605 0.349554 0.433052
v 0.077611 0.394314 0.433052
v 0.044845 0.427081 0.433052
v 0.000069 0.391786 0.462867
v -0.021047 0.386128 0.462867
v -0.036505 0.370669 0.462867
v -0.042163 0.349553 0.462867
v -0.036505 0.328437 0.462867
v -0.021047 0.312979 0.462867
v 0.000069 0.307321 0.462867
v 0.021185 0.312979 0.462867
v 0.036643 0.328437 0.462867
v 0.042301 0.349553 0.462867
v 0.036643 0.370669 0.462867
v 0.021185 0.386128 0.462867
v 0.000058 0.349551 -0.016053
v -0.076053 0.157435 0.117466
v -0.076053 0.157435 0.227575
v -0.037986 0.157435 0.117466
v -0.037986 0.157435 0.227575
v 0.038148 0.157435 0.117466
v 0.038148 0.157435 0.227575
v 0.076215 0.157435 0.117466
v 0.076215 0.157435 0.227575
vt 0.312430 0.958821
vt 0.312430 0.958821
vt 0.295311 0.953333
vt 0.295311 0.953333
vt 0.282756 0.909385
vt 0.282756 0.909385
vt 0.278170 0.888903
vt 0.278170 0.888903
vt 0.282756 0.868422
vt 0.282756 0.868422
vt 0.295311 0.824474
vt 0.295311 0.824474
vt 0.312430 0.818986
vt 0.312430 0.818986
vt 0.329571 0.824474
vt 0.329571 0.824474
vt 0.342104 0.868422
vt 0.342104 0.868422
vt 0.346711 0.888903
vt 0.346711 0.888903
vt 0.342104 0.909385
vt 0.342104 0.909385
vt 0.324258 0.792028
vt 0.312430 0.788240
vt 0.312430 0.793611
vt 0.322017 0.796680
vt 0.329571 0.953333
vt 0.329571 0.953333
vt 0.337435 0.862734
vt 0.326873 0.904325
vt 0.324694 0.899832
vt 0.333700 0.860140
vt 0.332476 0.959348
vt 0.332476 0.959348
vt 0.312430 0.965767
vt 0.312430 0.965767
vt 0.332476 0.775027
vt 0.312430 0.768608
vt 0.312430 0.788798
vt 0.324030 0.792511
vt 0.347147 0.912858
vt 0.347147 0.912858
vt 0.278170 0.845472
vt 0.282756 0.824990
vt 0.292343 0.831612
vt 0.289231 0.845472
vt 0.352521 0.888903
vt 0.352521 0.888903
vt 0.332476 0.915916
vt 0.347147 0.869426
vt 0.332517 0.859331
vt 0.324030 0.898432
vt 0.347147 0.864949
vt 0.347147 0.864949
vt 0.329571 0.781042
vt 0.342104 0.824990
vt 0.332517 0.831612
vt 0.324030 0.792511
vt 0.332476 0.818459
vt 0.332476 0.818458
vt 0.277714 0.821517
vt 0.272360 0.845472
vt 0.289231 0.845472
vt 0.292343 0.831612
vt 0.312430 0.812040
vt 0.312430 0.812040
vt 0.329571 0.909901
vt 0.312430 0.915389
vt 0.312430 0.902145
vt 0.324030 0.898432
vt 0.292385 0.818459
vt 0.292385 0.818458
vt 0.295311 0.909901
vt 0.300830 0.898432
vt 0.277714 0.864949
vt 0.277714 0.864949
vt 0.347147 0.821517
vt 0.332517 0.831612
vt 0.272360 0.888903
vt 0.272360 0.888903
vt 0.295311 0.781042
vt 0.300830 0.792511
vt 0.277714 0.912858
vt 0.277714 0.912858
vt 0.312430 0.922335
vt 0.312430 0.902145
vt 0.292385 0.959348
vt 0.292385 0.959348
vt 0.292385 0.915916
vt 0.300830 0.898432
vt 0.346711 0.845472
vt 0.335609 0.845472
vt 0.074030 0.927386
vt 0.074030 0.927386
vt 0.062430 0.931100
vt 0.062430 0.931100
vt 0.082517 0.888286
vt 0.082517 0.888286
vt 0.085609 0.874426
vt 0.085609 0.874426
vt 0.039231 0.845472
vt 0.042343 0.831612
vt 0.042343 0.831612
vt 0.039231 0.845472
vt 0.050830 0.821466
vt 0.050830 0.821466
vt 0.050830 0.821466
vt 0.050830 0.821466
vt 0.312430 0.817752
vt 0.312430 0.817752
vt 0.324030 0.821466
vt 0.324030 0.821466
vt 0.300830 0.821466
vt 0.300830 0.821466
vt 0.085609 0.845472
vt 0.082517 0.831612
vt 0.082517 0.831612
vt 0.085609 0.845472
vt 0.042343 0.831612
vt 0.039231 0.845472
vt 0.039231 0.845472
vt 0.042343 0.831612
vt 0.042343 0.888286
vt 0.042343 0.888286
vt 0.039231 0.874426
vt 0.039231 0.874426
vt 0.050830 0.927386
vt 0.050830 0.927386
vt 0.342104 0.865953
vt 0.332517 0.859331
vt 0.277714 0.869426
vt 0.292343 0.859331
vt 0.312430 0.775554
vt 0.312430 0.788798
vt 0.352521 0.845472
vt 0.335609 0.845472
vt 0.282756 0.865953
vt 0.292343 0.859331
vt 0.292385 0.775027
vt 0.300830 0.792511
vt 0.297988 0.947757
vt 0.312430 0.952382
vt 0.312430 0.946135
vt 0.300602 0.942347
vt 0.287425 0.906166
vt 0.291949 0.903042
vt 0.283545 0.888903
vt 0.288774 0.888903
vt 0.287425 0.871641
vt 0.291949 0.874765
vt 0.297988 0.830050
vt 0.300602 0.835460
vt 0.312430 0.825425
vt 0.312430 0.831672
vt 0.326873 0.830050
vt 0.324258 0.835460
vt 0.337435 0.871641
vt 0.332911 0.874765
vt 0.341316 0.888903
vt 0.336086 0.888903
vt 0.337435 0.906166
vt 0.332911 0.903042
vt 0.326873 0.947757
vt 0.324258 0.942347
vt 0.704031 0.877450
vt 0.687430 0.888903
vt 0.706583 0.888903
vt 0.283545 0.845472
vt 0.287425 0.828210
vt 0.291181 0.830804
vt 0.287882 0.845472
vt 0.324258 0.898915
vt 0.332911 0.859610
vt 0.329031 0.856925
vt 0.322017 0.894263
vt 0.326873 0.786619
vt 0.337435 0.828210
vt 0.333700 0.830804
vt 0.324694 0.791112
vt 0.291949 0.831333
vt 0.288774 0.845472
vt 0.293277 0.845472
vt 0.295829 0.834019
vt 0.312430 0.908951
vt 0.312430 0.903762
vt 0.297988 0.904325
vt 0.300166 0.899832
vt 0.332911 0.831333
vt 0.329031 0.834019
vt 0.297988 0.786619
vt 0.300166 0.791112
vt 0.312430 0.902703
vt 0.312430 0.897332
vt 0.300602 0.898915
vt 0.302843 0.894263
vt 0.341316 0.845472
vt 0.336979 0.845472
vt 0.300602 0.792028
vt 0.302843 0.796680
vt 0.287425 0.862734
vt 0.291181 0.860140
vt 0.336086 0.845472
vt 0.331583 0.845472
vt 0.312430 0.781993
vt 0.312430 0.787181
vt 0.291949 0.859610
vt 0.295829 0.856925
vt 0.682450 0.928179
vt 0.687430 0.929776
vt 0.687430 0.947194
vt 0.675166 0.943263
vt 0.678798 0.923817
vt 0.666181 0.903571
vt 0.677470 0.917858
vt 0.662882 0.888903
vt 0.678798 0.911899
vt 0.666181 0.874236
vt 0.682450 0.907537
vt 0.675166 0.834544
vt 0.687430 0.905940
vt 0.687430 0.830613
vt 0.692410 0.907537
vt 0.699694 0.834544
vt 0.696063 0.911899
vt 0.708700 0.874236
vt 0.697391 0.917858
vt 0.711979 0.888903
vt 0.696063 0.923817
vt 0.708700 0.903571
vt 0.692410 0.928179
vt 0.699694 0.943263
vt 0.687430 0.888903
vt 0.704031 0.900356
vt 0.697017 0.937695
vt 0.668277 0.888903
vt 0.670829 0.877450
vt 0.677843 0.840112
vt 0.687430 0.837043
vt 0.697017 0.840112
vt 0.670829 0.900356
vt 0.687430 0.940764
vt 0.677843 0.937695
vt 0.082517 0.831612
vt 0.085609 0.845472
vt 0.085609 0.845472
vt 0.082517 0.831612
vt 0.085609 0.874426
vt 0.085609 0.874426
vt 0.050830 0.792511
vt 0.050830 0.792511
vt 0.039231 0.874426
vt 0.039231 0.874426
vt 0.074030 0.792511
vt 0.050830 0.792511
vt 0.074030 0.821466
vt 0.074030 0.821466
vt 0.074030 0.821466
vt 0.074030 0.821466
vt 0.074030 0.792511
vt 0.074030 0.792511
vn -0.0000 1.0000 0.0000
vn -0.5000 0.8660 0.0000
vn -0.8660 0.5000 0.0000
vn -1.0000 -0.0000 0.0000
vn -0.8660 -0.5000 0.0000
vn -0.5000 -0.8660 0.0000
vn 0.0000 -1.0000 0.0000
vn 0.5000 -0.8660 0.0000
vn 0.8660 -0.5000 0.0000
vn 1.0000 0.0000 -0.0000
vn 0.8660 0.5000 -0.0000
vn -0.4155 0.7196 -0.5564
vn -0.0000 0.8309 -0.5564
vn -0.4154 0.7196 -0.5564
vn 0.5000 0.8660 0.0000
vn -0.7750 -0.4475 0.4462
vn -0.4475 -0.7751 0.4461
vn 0.2563 -0.4647 -0.8476
vn 0.0000 -0.5204 -0.8539
vn 0.2619 -0.4621 -0.8473
vn -0.9593 0.0000 0.2825
vn -0.8097 -0.4977 0.3110
vn -0.8191 -0.4833 0.3091
vn 0.2563 0.4647 -0.8476
vn 0.4731 0.2860 -0.8333
vn 0.4773 0.2802 -0.8329
vn 0.2619 0.4621 -0.8473
vn 0.4444 -0.8193 0.3623
vn 0.8098 -0.4978 0.3105
vn 0.8192 -0.4833 0.3087
vn 0.4584 -0.8123 0.3607
vn -0.4732 -0.2861 -0.8332
vn -0.5651 0.0000 -0.8250
vn -0.4774 -0.2803 -0.8328
vn 0.4444 0.8193 0.3623
vn -0.0000 0.9226 0.3858
vn 0.4584 0.8123 0.3607
vn -0.4444 0.8192 0.3625
vn -0.4583 0.8122 0.3609
vn 0.4731 -0.2860 -0.8333
vn 0.4773 -0.2802 -0.8329
vn -0.4444 -0.8192 0.3625
vn -0.4583 -0.8122 0.3609
vn 0.0000 0.5204 -0.8539
vn -0.2563 0.4647 -0.8476
vn -0.2619 0.4622 -0.8472
vn 0.9594 0.0000 0.2820
vn 0.4623 0.8867 -0.0000
vn 0.8429 0.5381 -0.0000
vn 0.9893 0.1457 -0.0000
vn 0.0000 0.0000 -1.0000
vn 0.2319 -0.9727 -0.0000
vn -0.2319 -0.9727 -0.0000
vn 0.0000 0.0000 1.0000
vn -0.8429 0.5381 -0.0000
vn -0.9893 0.1457 -0.0000
vn -0.4623 0.8867 -0.0000
vn 0.8098 0.4978 0.3105
vn 0.8192 0.4833 0.3087
vn -0.4732 0.2861 -0.8332
vn -0.4774 0.2803 -0.8328
vn -0.0000 -0.9226 0.3858
vn 0.5649 0.0000 -0.8251
vn -0.8097 0.4977 0.3110
vn -0.8191 0.4833 0.3091
vn -0.2563 -0.4647 -0.8476
vn -0.2619 -0.4622 -0.8472
vn 0.2998 -0.1731 -0.9382
vn 0.3462 0.0000 -0.9382
vn 0.8950 0.0000 0.4460
vn 0.7751 0.4475 0.4460
vn -0.4155 -0.7196 -0.5564
vn -0.7196 -0.4154 -0.5565
vn -0.7195 -0.4154 -0.5565
vn -0.4154 -0.7196 -0.5564
vn -0.4475 0.7751 0.4461
vn -0.7750 0.4475 0.4462
vn 0.7197 0.4155 -0.5563
vn 0.8310 -0.0000 -0.5563
vn -0.0000 -0.8950 0.4461
vn 0.4475 -0.7751 0.4460
vn -0.7196 0.4154 -0.5565
vn -0.7195 0.4154 -0.5565
vn 0.4475 0.7751 0.4460
vn -0.0000 -0.8309 -0.5564
vn 0.4155 -0.7196 -0.5563
vn -0.8949 -0.0000 0.4462
vn 0.4155 0.7196 -0.5563
vn 0.7751 -0.4475 0.4460
vn -0.8309 0.0000 -0.5565
vn -0.0000 0.8950 0.4461
vn 0.7197 -0.4155 -0.5563
vn -0.1896 0.3284 0.9253
vn -0.0000 0.3791 0.9253
vn 0.0000 0.5333 0.8459
vn -0.2667 0.4619 0.8459
vn -0.3284 0.1896 0.9253
vn -0.4620 0.2667 0.8458
vn -0.3792 -0.0000 0.9253
vn -0.5335 0.0000 0.8458
vn -0.3284 -0.1896 0.9253
vn -0.4620 -0.2667 0.8458
vn -0.1896 -0.3284 0.9253
vn -0.2667 -0.4619 0.8459
vn -0.0000 -0.3791 0.9253
vn 0.0000 -0.5333 0.8459
vn 0.1895 -0.3283 0.9254
vn 0.2666 -0.4618 0.8459
vn 0.3283 -0.1896 0.9254
vn 0.4618 -0.2666 0.8460
vn 0.3791 -0.0000 0.9254
vn 0.5332 0.0000 0.8460
vn 0.3283 0.1895 0.9254
vn 0.4618 0.2666 0.8460
vn 0.1895 0.3283 0.9254
vn 0.2666 0.4618 0.8460
vn 0.0001 0.0000 1.0000
vn 0.2998 0.1731 -0.9382
vn 0.1731 0.2998 -0.9382
vn -0.3461 0.0000 -0.9382
vn -0.2998 -0.1731 -0.9382
vn -0.1731 -0.2998 -0.9382
vn -0.0000 -0.3462 -0.9382
vn 0.1731 -0.2998 -0.9382
vn -0.2998 0.1731 -0.9382
vn -0.0000 0.3461 -0.9382
vn -0.1731 0.2998 -0.9382
usemtl prototype_texture
s 1
f 26/1/1 76/2/1 75/3/2 27/4/2
f 27/4/2 75/3/2 78/5/3 29/6/3
f 29/6/3 78/5/3 80/7/4 31/8/4
f 31/8/4 80/7/4 82/9/5 33/10/5
f 33/10/5 82/9/5 84/11/6 35/12/6
f 35/12/6 84/11/6 86/13/7 37/14/7
f 37/14/7 86/13/7 88/15/8 39/16/8
f 39/16/8 88/15/8 90/17/9 41/18/9
f 41/18/9 90/17/9 92/19/10 43/20/10
f 43/20/10 92/19/10 94/21/11 45/22/11
f 16/23/12 14/24/13 104/25/13 105/26/14
f 45/22/11 94/21/11 96/27/15 47/28/15
f 47/28/15 96/27/15 76/2/1 26/1/1
f 21/29/16 23/30/17 121/31/17 120/32/16
f 95/33/15 48/34/15 25/35/1 73/36/1
f 40/37/18 38/38/19 62/39/19 64/40/20
f 93/41/11 46/42/11 48/34/15 95/33/15
f 31/43/21 33/44/22 57/45/23 55/46/21
f 91/47/10 44/48/10 46/42/11 93/41/11
f 48/49/24 46/50/25 70/51/26 72/52/27
f 89/53/9 42/54/9 44/48/10 91/47/10
f 39/55/28 41/56/29 65/57/30 63/58/31
f 87/59/8 40/60/8 42/54/9 89/53/9
f 34/61/32 32/62/33 56/63/33 58/64/34
f 85/65/7 38/66/7 40/60/8 87/59/8
f 47/67/35 26/68/36 50/69/36 71/70/37
f 83/71/6 36/72/6 38/66/7 85/65/7
f 26/68/36 27/73/38 51/74/39 50/69/36
f 81/75/5 34/76/5 36/72/6 83/71/6
f 42/77/40 40/37/18 64/40/20 66/78/41
f 79/79/4 32/80/4 34/76/5 81/75/5
f 33/44/22 35/81/42 59/82/43 57/45/23
f 77/83/3 30/84/3 32/80/4 79/79/4
f 25/85/44 48/49/24 72/52/27 49/86/44
f 74/87/2 28/88/2 30/84/3 77/83/3
f 28/89/45 25/85/44 49/86/44 52/90/46
f 73/36/1 25/35/1 28/88/2 74/87/2
f 41/56/29 43/91/47 67/92/47 65/57/30
f 72/93/48 71/94/48 50/95/1 49/96/1
f 70/97/49 69/98/49 71/94/48 72/93/48
f 68/99/50 67/100/50 69/98/49 70/97/49
f 55/101/51 57/102/51 137/103/51 135/104/51
f 59/105/10 60/106/10 138/107/10 137/108/10
f 62/109/7 61/110/7 63/111/52 64/112/52
f 60/113/53 59/114/53 61/110/7 62/109/7
f 68/115/54 66/116/54 140/117/54 142/118/54
f 58/119/54 56/120/54 136/121/54 138/122/54
f 54/123/55 53/124/55 55/125/56 56/126/56
f 52/127/57 51/128/57 53/124/55 54/123/55
f 49/96/1 50/95/1 51/128/57 52/127/57
f 45/129/58 47/67/35 71/70/37 69/130/59
f 32/62/33 30/131/60 54/132/61 56/63/33
f 37/133/62 39/55/28 63/58/31 61/134/62
f 46/50/25 44/135/63 68/136/63 70/51/26
f 29/137/64 31/43/21 55/46/21 53/138/65
f 38/38/19 36/139/66 60/140/67 62/39/19
f 43/91/47 45/129/58 69/130/59 67/92/47
f 30/131/60 28/89/45 52/90/46 54/132/61
f 35/81/42 37/133/62 61/134/62 59/82/43
f 44/135/63 42/77/40 66/78/41 68/136/63
f 27/73/38 29/137/64 53/138/65 51/74/39
f 36/139/66 34/61/32 58/64/34 60/140/67
f 3/141/54 1/142/54 73/36/54 74/87/54
f 2/143/51 4/144/51 75/3/51 76/2/51
f 5/145/54 3/141/54 74/87/54 77/83/54
f 4/144/51 6/146/51 78/5/51 75/3/51
f 7/147/54 5/145/54 77/83/54 79/79/54
f 6/146/51 8/148/51 80/7/51 78/5/51
f 9/149/54 7/147/54 79/79/54 81/75/54
f 8/148/51 10/150/51 82/9/51 80/7/51
f 11/151/54 9/149/54 81/75/54 83/71/54
f 10/150/51 12/152/51 84/11/51 82/9/51
f 13/153/54 11/151/54 83/71/54 85/65/54
f 12/152/51 14/154/51 86/13/51 84/11/51
f 15/155/54 13/153/54 85/65/54 87/59/54
f 14/154/51 16/156/51 88/15/51 86/13/51
f 17/157/54 15/155/54 87/59/54 89/53/54
f 16/156/51 18/158/51 90/17/51 88/15/51
f 19/159/54 17/157/54 89/53/54 91/47/54
f 18/158/51 20/160/51 92/19/51 90/17/51
f 21/161/54 19/159/54 91/47/54 93/41/54
f 20/160/51 22/162/51 94/21/51 92/19/51
f 23/163/54 21/161/54 93/41/54 95/33/54
f 22/162/51 24/164/51 96/27/51 94/21/51
f 1/142/54 23/163/54 95/33/54 73/36/54
f 24/164/51 2/143/51 76/2/51 96/27/51
f 106/165/68 134/166/51 107/167/69
f 7/168/70 9/169/71 114/170/71 113/171/70
f 24/172/72 22/173/73 108/174/74 109/175/75
f 15/176/76 17/177/77 118/178/77 117/179/76
f 10/180/78 8/181/79 101/182/79 102/183/78
f 23/30/17 1/184/80 110/185/80 121/31/17
f 1/184/80 3/186/81 111/187/81 110/185/80
f 18/188/82 16/23/12 105/26/14 106/189/83
f 9/169/71 11/190/84 115/191/84 114/170/71
f 2/192/85 24/172/72 109/175/75 99/193/85
f 4/194/86 2/192/85 99/193/85 98/195/86
f 17/177/77 19/196/87 119/197/87 118/178/77
f 12/198/88 10/180/78 102/183/78 103/199/88
f 3/186/81 5/200/89 112/201/89 111/187/81
f 20/202/90 18/188/82 106/189/83 107/203/90
f 11/190/84 13/204/91 116/205/91 115/191/84
f 6/206/92 4/194/86 98/195/86 100/207/92
f 19/196/87 21/29/16 120/32/16 119/197/87
f 14/24/13 12/198/88 103/199/88 104/25/13
f 5/200/89 7/168/70 113/171/70 112/201/89
f 22/173/73 20/202/90 107/203/90 108/174/74
f 13/204/91 15/176/76 117/179/76 116/205/91
f 8/181/79 6/206/92 100/207/92 101/182/79
f 123/208/93 122/209/94 110/210/95 111/211/96
f 124/212/97 123/208/93 111/211/96 112/213/98
f 125/214/99 124/212/97 112/213/98 113/215/100
f 126/216/101 125/214/99 113/215/100 114/217/102
f 127/218/103 126/216/101 114/217/102 115/219/104
f 128/220/105 127/218/103 115/219/104 116/221/106
f 129/222/107 128/220/105 116/221/106 117/223/108
f 130/224/109 129/222/107 117/223/108 118/225/110
f 131/226/111 130/224/109 118/225/110 119/227/112
f 132/228/113 131/226/111 119/227/112 120/229/114
f 133/230/115 132/228/113 120/229/114 121/231/116
f 122/209/94 133/230/115 121/231/116 110/210/95
f 97/232/117 122/209/94 123/208/93
f 97/232/117 123/208/93 124/212/97
f 97/232/117 124/212/97 125/214/99
f 97/232/117 125/214/99 126/216/101
f 97/232/117 126/216/101 127/218/103
f 97/232/117 127/218/103 128/220/105
f 97/232/117 128/220/105 129/222/107
f 97/232/117 129/222/107 130/224/109
f 97/232/117 130/224/109 131/226/111
f 97/232/117 131/226/111 132/228/113
f 97/232/117 132/228/113 133/230/115
f 97/232/117 133/230/115 122/209/94
f 108/233/118 134/166/51 109/234/119
f 101/235/120 134/166/51 102/236/121
f 103/237/122 134/166/51 104/238/123
f 105/239/124 134/166/51 106/165/68
f 100/240/125 134/166/51 101/235/120
f 108/233/118 107/167/69 134/166/51
f 102/236/121 134/166/51 103/237/122
f 109/234/119 134/166/51 99/241/126
f 104/238/123 134/166/51 105/239/124
f 98/242/127 134/166/51 100/240/125
f 99/241/126 134/166/51 98/242/127
f 65/243/51 67/244/51 141/245/51 139/246/51
f 67/100/50 68/99/50 142/247/10 141/248/10
f 60/249/54 58/119/54 138/250/54
f 56/126/56 55/125/56 135/251/4 136/252/4
f 66/116/54 64/253/54 140/117/54
f 57/102/51 59/254/51 137/103/51
f 64/255/4 63/256/4 139/257/4 140/258/4
f 63/259/51 65/243/51 139/260/51
