# Blender v3.4.1 OBJ File: 'Prototype_Bits_Export.blend'
# www.blender.org
mtllib Locker.mtl
o Locker_Cube.435
v -0.420000 0.280000 0.500000
v -0.420000 2.920000 0.500000
v -0.500000 0.200000 -0.500000
v -0.500000 3.000000 -0.500000
v 0.420000 0.280000 0.500000
v 0.420000 2.920000 0.500000
v 0.500000 0.200000 -0.500000
v 0.500000 3.000000 -0.500000
v -0.500000 0.200000 0.500000
v -0.500000 3.000000 0.500000
v 0.500000 3.000000 0.500000
v 0.500000 0.200000 0.500000
v -0.400000 0.300000 0.450000
v -0.400000 2.900000 0.450000
v 0.400000 2.900000 0.450000
v 0.400000 0.300000 0.450000
v -0.400000 0.300000 -0.350000
v -0.400000 2.900000 -0.350000
v 0.400000 2.900000 -0.350000
v 0.400000 0.300000 -0.350000
v -0.499994 -0.000000 0.500000
v -0.499994 0.200000 0.500000
v -0.499994 -0.000000 0.400000
v -0.499994 0.200000 0.300000
v -0.399994 -0.000000 0.500000
v -0.299994 0.200000 0.500000
v -0.399994 -0.000000 0.400000
v -0.299994 0.200000 0.300000
v -0.499994 -0.000000 -0.500000
v -0.499994 0.200000 -0.500000
v -0.399994 -0.000000 -0.500000
v -0.299994 0.200000 -0.500000
v -0.499994 -0.000000 -0.400000
v -0.499994 0.200000 -0.300000
v -0.399994 -0.000000 -0.400000
v -0.299994 0.200000 -0.300000
v 0.499994 -0.000000 -0.500000
v 0.499994 0.200000 -0.500000
v 0.499994 -0.000000 -0.400000
v 0.499994 0.200000 -0.300000
v 0.399994 -0.000000 -0.500000
v 0.299994 0.200000 -0.500000
v 0.399994 -0.000000 -0.400000
v 0.299994 0.200000 -0.300000
v 0.499994 -0.000000 0.500000
v 0.499994 0.200000 0.500000
v 0.399994 -0.000000 0.500000
v 0.299994 0.200000 0.500000
v 0.499994 -0.000000 0.400000
v 0.499994 0.200000 0.300000
v 0.399994 -0.000000 0.400000
v 0.299994 0.200000 0.300000
v -0.400000 2.052080 0.450000
v -0.400000 2.147920 0.450000
v 0.400000 2.147920 0.450000
v 0.400000 2.052080 0.450000
v -0.400000 2.052080 -0.350000
v -0.400000 2.147920 -0.350000
v 0.400000 2.147920 -0.350000
v 0.400000 2.052080 -0.350000
vt 0.663906 0.776603
vt 0.663906 0.796978
vt 0.663906 0.796978
vt 0.663906 0.776603
vt 0.663906 0.780243
vt 0.663906 0.800618
vt 0.717039 0.800618
vt 0.690472 0.780243
vt 0.690472 0.786236
vt 0.717039 0.806610
vt 0.717039 0.806610
vt 0.690472 0.786236
vt 0.690472 0.798221
vt 0.717039 0.818595
vt 0.663906 0.818595
vt 0.663906 0.798221
vt 0.663906 0.774250
vt 0.690472 0.774250
vt 0.690472 0.774250
vt 0.663906 0.774250
vt 0.663906 0.792228
vt 0.663906 0.812603
vt 0.663906 0.812603
vt 0.663906 0.792228
vt 0.663906 0.780243
vt 0.663906 0.800618
vt 0.717039 0.800618
vt 0.690472 0.780243
vt 0.690472 0.786236
vt 0.717039 0.806610
vt 0.717039 0.806610
vt 0.690472 0.786236
vt 0.690472 0.782596
vt 0.717039 0.802970
vt 0.663906 0.802970
vt 0.663906 0.782596
vt 0.663906 0.774250
vt 0.690472 0.774250
vt 0.690472 0.774250
vt 0.663906 0.774250
vt 0.663906 0.776603
vt 0.663906 0.796978
vt 0.663906 0.796978
vt 0.663906 0.776603
vt 0.663906 0.780243
vt 0.663906 0.800618
vt 0.717039 0.800618
vt 0.690472 0.780243
vt 0.690472 0.786236
vt 0.717039 0.806610
vt 0.717039 0.806610
vt 0.690472 0.786236
vt 0.690472 0.798221
vt 0.717039 0.818595
vt 0.663906 0.818595
vt 0.663906 0.798221
vt 0.663906 0.774250
vt 0.690472 0.774250
vt 0.690472 0.774250
vt 0.663906 0.774250
vt 0.663906 0.792228
vt 0.663906 0.812603
vt 0.663906 0.812603
vt 0.663906 0.792228
vt 0.663906 0.780243
vt 0.663906 0.800618
vt 0.717039 0.800618
vt 0.690472 0.780243
vt 0.690472 0.786236
vt 0.717039 0.806610
vt 0.717039 0.806610
vt 0.690472 0.786236
vt 0.690472 0.782596
vt 0.717039 0.802970
vt 0.663906 0.802970
vt 0.663906 0.782596
vt 0.663906 0.774250
vt 0.690472 0.774250
vt 0.690472 0.774250
vt 0.663906 0.774250
vt 0.655082 0.800790
vt 0.655082 0.891100
vt 0.655082 0.891100
vt 0.655082 0.800790
vt 0.655082 0.816415
vt 0.655082 0.906725
vt 0.709657 0.906725
vt 0.709657 0.816415
vt 0.709657 0.800790
vt 0.709657 0.891100
vt 0.709657 0.891100
vt 0.709657 0.800790
vt 0.705291 0.871109
vt 0.659448 0.871109
vt 0.660540 0.870017
vt 0.704199 0.870017
vt 0.709657 0.922350
vt 0.655082 0.922350
vt 0.655082 0.922350
vt 0.709657 0.922350
vt 0.659448 0.820781
vt 0.659448 0.902359
vt 0.655082 0.906725
vt 0.655082 0.816415
vt 0.705291 0.902359
vt 0.705291 0.820781
vt 0.709657 0.816415
vt 0.709657 0.906725
vt 0.705291 0.805156
vt 0.705291 0.886734
vt 0.704199 0.885642
vt 0.704199 0.806248
vt 0.659448 0.836406
vt 0.705291 0.836406
vt 0.704199 0.837498
vt 0.660540 0.837498
vt 0.659448 0.886734
vt 0.659448 0.805156
vt 0.660540 0.806248
vt 0.660540 0.885642
vt 0.410540 0.837498
vt 0.454199 0.837498
vt 0.454199 0.837498
vt 0.410540 0.837498
vt 0.410540 0.870017
vt 0.410540 0.790623
vt 0.410540 0.790623
vt 0.410540 0.870017
vt 0.454199 0.870017
vt 0.454199 0.870017
vt 0.454199 0.790623
vt 0.454199 0.790623
vt 0.410540 0.821873
vt 0.454199 0.821873
vt 0.454199 0.901267
vt 0.410540 0.901267
vt 0.704199 0.821873
vt 0.660540 0.821873
vt 0.660540 0.821873
vt 0.704199 0.821873
vt 0.704199 0.870017
vt 0.660540 0.870017
vt 0.660540 0.870017
vt 0.704199 0.870017
vt 0.704199 0.853683
vt 0.660540 0.853683
vt 0.660540 0.838207
vt 0.704199 0.838207
vn -1.0000 0.0000 0.0000
vn 0.0000 -0.4472 -0.8944
vn 0.8944 -0.4472 0.0000
vn 0.0000 0.0000 1.0000
vn 0.0000 -1.0000 0.0000
vn 0.0000 0.0000 -1.0000
vn 0.0000 -0.4472 0.8944
vn 1.0000 0.0000 0.0000
vn -0.8944 -0.4472 -0.0000
vn 0.0000 -0.9285 0.3714
vn 0.0000 -0.9781 0.2083
vn 0.0000 1.0000 0.0000
vn -0.9285 0.0000 0.3714
vn -0.9781 0.0000 0.2083
vn 0.0000 0.9285 0.3714
vn 0.0000 0.9781 0.2083
vn 0.9285 0.0000 0.3714
vn 0.9781 0.0000 0.2083
usemtl prototype_texture
s off
f 21/1/1 22/2/1 24/3/1 23/4/1
f 23/5/2 24/6/2 28/7/2 27/8/2
f 27/9/3 28/10/3 26/11/3 25/12/3
f 25/13/4 26/14/4 22/15/4 21/16/4
f 23/17/5 27/18/5 25/19/5 21/20/5
f 29/21/6 30/22/6 32/23/6 31/24/6
f 31/25/3 32/26/3 36/27/3 35/28/3
f 35/29/7 36/30/7 34/31/7 33/32/7
f 33/33/1 34/34/1 30/35/1 29/36/1
f 31/37/5 35/38/5 33/39/5 29/40/5
f 37/41/8 38/42/8 40/43/8 39/44/8
f 39/45/7 40/46/7 44/47/7 43/48/7
f 43/49/9 44/50/9 42/51/9 41/52/9
f 41/53/6 42/54/6 38/55/6 37/56/6
f 39/57/5 43/58/5 41/59/5 37/60/5
f 45/61/4 46/62/4 48/63/4 47/64/4
f 47/65/9 48/66/9 52/67/9 51/68/9
f 51/69/2 52/70/2 50/71/2 49/72/2
f 49/73/8 50/74/8 46/75/8 45/76/8
f 47/77/5 51/78/5 49/79/5 45/80/5
s 1
f 9/81/1 10/82/1 4/83/1 3/84/1
f 3/85/6 4/86/6 8/87/6 7/88/6
f 7/89/8 8/90/8 11/91/8 12/92/8
f 6/93/10 2/94/10 14/95/11 15/96/11
f 3/84/5 7/89/5 12/92/5 9/81/5
f 8/97/12 4/98/12 10/99/12 11/100/12
f 1/101/4 2/102/4 10/103/4 9/104/4
f 6/105/4 5/106/4 12/107/4 11/108/4
f 5/106/4 1/101/4 9/104/4 12/107/4
f 2/102/4 6/105/4 11/108/4 10/103/4
f 5/109/13 6/110/13 15/111/14 16/112/14
f 1/113/15 5/114/15 16/115/16 13/116/16
f 2/117/17 1/118/17 13/119/18 14/120/18
f 13/121/16 16/122/16 20/123/12 17/124/12
f 14/125/18 13/126/18 17/127/8 18/128/8
f 15/129/11 14/125/11 18/128/5 19/130/5
f 16/131/14 15/129/14 19/130/1 20/132/1
f 17/133/4 20/134/4 19/135/4 18/136/4
f 56/137/5 53/138/5 57/139/5 60/140/5
f 59/141/12 58/142/12 54/143/12 55/144/12
f 55/145/4 54/146/4 53/147/4 56/148/4
