# Blender v3.4.1 OBJ File: 'Prototype_Bits_Export.blend'
# www.blender.org
mtllib Weaponrack.mtl
o Weaponrack_Cube.547
v -0.680000 0.020000 0.250000
v -0.700000 0.020000 0.230000
v -0.680000 0.180000 0.250000
v -0.680000 0.200000 0.230000
v -0.700000 0.180000 0.230000
v -0.700000 0.020000 -0.230000
v -0.680000 0.020000 -0.250000
v -0.680000 0.200000 -0.230000
v -0.680000 0.180000 -0.250000
v -0.700000 0.180000 -0.230000
v 0.700000 0.020000 0.230000
v 0.680000 0.020000 0.250000
v 0.680000 0.200000 0.230000
v 0.680000 0.180000 0.250000
v 0.700000 0.180000 0.230000
v 0.680000 0.020000 -0.250000
v 0.700000 0.020000 -0.230000
v 0.680000 0.200000 -0.230000
v 0.700000 0.180000 -0.230000
v 0.680000 0.180000 -0.250000
v -0.680000 0.000000 -0.230000
v -0.680000 0.000000 0.230000
v 0.680000 0.000000 -0.230000
v 0.680000 0.000000 0.230000
v -0.680000 0.020000 0.550000
v -0.700000 0.020000 0.530000
v -0.680000 0.080000 0.550000
v -0.680000 0.100000 0.530000
v -0.700000 0.080000 0.530000
v -0.700000 0.020000 0.370000
v -0.680000 0.020000 0.350000
v -0.680000 0.200000 0.370000
v -0.680000 0.180000 0.350000
v -0.700000 0.180000 0.370000
v 0.700000 0.020000 0.530000
v 0.680000 0.020000 0.550000
v 0.680000 0.100000 0.530000
v 0.680000 0.080000 0.550000
v 0.700000 0.080000 0.530000
v 0.680000 0.020000 0.350000
v 0.700000 0.020000 0.370000
v 0.680000 0.200000 0.370000
v 0.700000 0.180000 0.370000
v 0.680000 0.180000 0.350000
v -0.680000 0.000000 0.370000
v -0.680000 0.000000 0.530000
v 0.680000 0.000000 0.370000
v 0.680000 0.000000 0.530000
v 0.600003 0.200000 -0.050003
v 0.600003 0.220000 -0.030003
v 0.580003 0.220000 -0.050003
v 0.580003 1.300000 -0.050003
v 0.600003 1.300000 -0.030003
v 0.660003 0.200000 -0.050003
v 0.680003 0.220000 -0.050003
v 0.660003 0.220000 -0.030003
v 0.660003 1.300000 -0.030003
v 0.680003 1.300000 -0.050003
v 0.600003 0.200000 -0.210003
v 0.580003 0.220000 -0.210003
v 0.600003 0.220000 -0.230003
v 0.600003 1.300000 -0.230003
v 0.580003 1.300000 -0.210003
v 0.680003 0.220000 -0.209991
v 0.660003 0.220000 -0.229992
v 0.660003 0.200000 -0.209991
v 0.660003 1.300000 -0.229992
v 0.680003 1.300000 -0.209991
v -0.660003 0.200000 -0.209997
v -0.660003 0.220000 -0.229997
v -0.680003 0.220000 -0.209997
v -0.680003 1.300000 -0.209997
v -0.660003 1.300000 -0.229997
v -0.600003 0.200000 -0.209997
v -0.580003 0.220000 -0.209997
v -0.600003 0.220000 -0.229997
v -0.600003 1.300000 -0.229997
v -0.580003 1.300000 -0.209997
v -0.660003 0.200000 -0.049997
v -0.680003 0.220000 -0.049997
v -0.660003 0.220000 -0.029997
v -0.660003 1.300000 -0.029997
v -0.680003 1.300000 -0.049997
v -0.580003 0.220000 -0.050009
v -0.600003 0.220000 -0.030009
v -0.600003 0.200000 -0.050009
v -0.600003 1.300000 -0.030009
v -0.580003 1.300000 -0.050009
v -0.680000 1.320000 0.050000
v -0.700000 1.320000 0.030000
v -0.680000 1.480000 0.050000
v -0.680000 1.500000 0.030000
v -0.700000 1.480000 0.030000
v -0.700000 1.320000 -0.230000
v -0.680000 1.320000 -0.250000
v -0.680000 1.500000 -0.230000
v -0.680000 1.480000 -0.250000
v -0.700000 1.480000 -0.230000
v 0.700000 1.320000 0.030000
v 0.680000 1.320000 0.050000
v 0.680000 1.500000 0.030000
v 0.680000 1.480000 0.050000
v 0.700000 1.480000 0.030000
v 0.680000 1.320000 -0.250000
v 0.700000 1.320000 -0.230000
v 0.680000 1.500000 -0.230000
v 0.700000 1.480000 -0.230000
v 0.680000 1.480000 -0.250000
v -0.680000 1.300000 -0.230000
v -0.680000 1.300000 0.030000
v 0.680000 1.300000 -0.230000
v 0.680000 1.300000 0.030000
v 0.453333 1.300000 -0.230000
v 0.226667 1.300000 -0.230000
v -0.000000 1.300000 -0.230000
v -0.226667 1.300000 -0.230000
v -0.453333 1.300000 -0.230000
v -0.453333 1.320000 -0.250000
v -0.226667 1.320000 -0.250000
v 0.000000 1.320000 -0.250000
v 0.226667 1.320000 -0.250000
v 0.453333 1.320000 -0.250000
v -0.453333 1.500000 -0.230000
v -0.226667 1.500000 -0.230000
v 0.000000 1.500000 -0.230000
v 0.226667 1.500000 -0.230000
v 0.453333 1.500000 -0.230000
v 0.453333 1.480000 -0.250000
v 0.226667 1.480000 -0.250000
v -0.000000 1.480000 -0.250000
v -0.226667 1.480000 -0.250000
v -0.453333 1.480000 -0.250000
v -0.453333 1.300000 -0.070000
v -0.226667 1.300000 0.030000
v 0.000000 1.300000 -0.070000
v 0.226667 1.300000 0.030000
v 0.453333 1.300000 -0.070000
v 0.453333 1.320000 -0.050000
v 0.226667 1.320000 0.050000
v -0.000000 1.320000 -0.050000
v -0.226667 1.320000 0.050000
v -0.453333 1.320000 -0.050000
v 0.453333 1.500000 -0.070000
v 0.226667 1.500000 0.030000
v -0.000000 1.500000 -0.070000
v -0.226667 1.500000 0.030000
v -0.453333 1.500000 -0.070000
v -0.453333 1.480000 -0.050000
v -0.226667 1.480000 0.050000
v 0.000000 1.480000 -0.050000
v 0.226667 1.480000 0.050000
v 0.453333 1.480000 -0.050000
v -0.560000 0.720000 -0.030000
v -0.580000 0.720000 -0.050000
v -0.560000 0.780000 -0.030000
v -0.560000 0.800000 -0.050000
v -0.580000 0.780000 -0.050000
v -0.580000 0.720000 -0.210000
v -0.560000 0.720000 -0.230000
v -0.560000 0.800000 -0.210000
v -0.560000 0.780000 -0.230000
v -0.580000 0.780000 -0.210000
v 0.580000 0.720000 -0.050000
v 0.560000 0.720000 -0.030000
v 0.560000 0.800000 -0.050000
v 0.560000 0.780000 -0.030000
v 0.580000 0.780000 -0.050000
v 0.560000 0.720000 -0.230000
v 0.580000 0.720000 -0.210000
v 0.560000 0.800000 -0.210000
v 0.580000 0.780000 -0.210000
v 0.560000 0.780000 -0.230000
v -0.560000 0.700000 -0.210000
v -0.560000 0.700000 -0.050000
v 0.560000 0.700000 -0.210000
v 0.560000 0.700000 -0.050000
vt 0.418232 0.892167
vt 0.418232 0.917907
vt 0.403206 0.917907
vt 0.403206 0.892167
vt 0.418544 0.876542
vt 0.418544 0.902282
vt 0.418544 0.902282
vt 0.418544 0.876542
vt 0.418232 0.952374
vt 0.403206 0.952374
vt 0.403206 0.952374
vt 0.418232 0.952374
vt 0.402893 0.876542
vt 0.402893 0.902282
vt 0.402893 0.902282
vt 0.402893 0.876542
vt 0.403206 0.892167
vt 0.403206 0.917907
vt 0.418232 0.917907
vt 0.418232 0.892167
vt 0.451898 0.920199
vt 0.451898 0.923417
vt 0.451659 0.923417
vt 0.451898 0.980407
vt 0.451898 0.983624
vt 0.451659 0.980407
vt 0.451898 0.920199
vt 0.451659 0.923417
vt 0.451898 0.923417
vt 0.451898 0.983624
vt 0.451898 0.980407
vt 0.451659 0.980407
vt 0.463364 0.920199
vt 0.463602 0.923417
vt 0.463364 0.923417
vt 0.463364 0.983624
vt 0.463364 0.980407
vt 0.463602 0.980407
vt 0.463364 0.920199
vt 0.463364 0.923417
vt 0.463602 0.923417
vt 0.463364 0.983624
vt 0.463602 0.980407
vt 0.463364 0.980407
vt 0.451898 0.949157
vt 0.451659 0.949157
vt 0.451898 0.949157
vt 0.451659 0.949157
vt 0.463602 0.949157
vt 0.463364 0.949157
vt 0.463364 0.949157
vt 0.463602 0.949157
vt 0.401638 0.857582
vt 0.401638 0.857582
vt 0.412837 0.857582
vt 0.412837 0.857582
vt 0.418232 0.892167
vt 0.418232 0.917907
vt 0.403206 0.917907
vt 0.403206 0.892167
vt 0.418544 0.876542
vt 0.418544 0.902282
vt 0.418544 0.902282
vt 0.418544 0.876542
vt 0.418232 0.952374
vt 0.403206 0.952374
vt 0.403206 0.952374
vt 0.418232 0.952374
vt 0.402893 0.876542
vt 0.402893 0.902282
vt 0.402893 0.902282
vt 0.402893 0.876542
vt 0.403206 0.892167
vt 0.403206 0.917907
vt 0.418232 0.917907
vt 0.418232 0.892167
vt 0.451898 0.920199
vt 0.451898 0.923417
vt 0.451659 0.923417
vt 0.451898 0.980407
vt 0.451898 0.983624
vt 0.451659 0.980407
vt 0.451898 0.920199
vt 0.451659 0.923417
vt 0.451898 0.923417
vt 0.451898 0.983624
vt 0.451898 0.980407
vt 0.451659 0.980407
vt 0.463364 0.920199
vt 0.463602 0.923417
vt 0.463364 0.923417
vt 0.463364 0.983624
vt 0.463364 0.980407
vt 0.463602 0.980407
vt 0.463364 0.920199
vt 0.463364 0.923417
vt 0.463602 0.923417
vt 0.463364 0.983624
vt 0.463602 0.980407
vt 0.463364 0.980407
vt 0.451898 0.949157
vt 0.451659 0.949157
vt 0.451898 0.949157
vt 0.451659 0.949157
vt 0.463602 0.949157
vt 0.463364 0.949157
vt 0.463364 0.949157
vt 0.463602 0.949157
vt 0.401638 0.857582
vt 0.401638 0.857582
vt 0.412837 0.857582
vt 0.412837 0.857582
vt 0.333802 0.816683
vt 0.333980 0.818486
vt 0.333802 0.818486
vt 0.285387 0.818486
vt 0.287253 0.818486
vt 0.287253 0.888832
vt 0.285387 0.888832
vt 0.287487 0.802861
vt 0.287487 0.802861
vt 0.287487 0.873207
vt 0.287487 0.873207
vt 0.285387 0.818486
vt 0.287253 0.818486
vt 0.287253 0.888832
vt 0.285387 0.888832
vt 0.287487 0.802861
vt 0.287487 0.802861
vt 0.287487 0.873207
vt 0.287487 0.873207
vt 0.333802 0.816683
vt 0.333980 0.818486
vt 0.333802 0.818486
vt 0.333802 0.816683
vt 0.333802 0.818486
vt 0.333980 0.818486
vt 0.332377 0.816683
vt 0.332377 0.818486
vt 0.332199 0.818486
vt 0.333980 0.849736
vt 0.333980 0.920082
vt 0.333802 0.920082
vt 0.333802 0.849736
vt 0.333980 0.920082
vt 0.333980 0.849736
vt 0.333802 0.849736
vt 0.333802 0.920082
vt 0.332199 0.920082
vt 0.332199 0.849736
vt 0.332377 0.849736
vt 0.332377 0.920082
vt 0.332377 0.818486
vt 0.332377 0.816683
vt 0.333980 0.849736
vt 0.333980 0.920082
vt 0.333802 0.920082
vt 0.333802 0.849736
vt 0.287253 0.785433
vt 0.287253 0.785433
vt 0.287253 0.785433
vt 0.287253 0.785433
vt 0.333980 0.818486
vt 0.333802 0.816683
vt 0.333802 0.816683
vt 0.333802 0.818486
vt 0.333980 0.818486
vt 0.285387 0.818486
vt 0.285387 0.888832
vt 0.287253 0.888832
vt 0.287253 0.818486
vt 0.287487 0.802861
vt 0.287487 0.873207
vt 0.287487 0.873207
vt 0.287487 0.802861
vt 0.285387 0.818486
vt 0.285387 0.888832
vt 0.287253 0.888832
vt 0.287253 0.818486
vt 0.287487 0.802861
vt 0.287487 0.873207
vt 0.287487 0.873207
vt 0.287487 0.802861
vt 0.333802 0.816683
vt 0.333802 0.818486
vt 0.333980 0.818486
vt 0.333802 0.816683
vt 0.333980 0.818486
vt 0.333802 0.818486
vt 0.332377 0.816683
vt 0.332199 0.818486
vt 0.332377 0.818486
vt 0.333980 0.849736
vt 0.333802 0.849736
vt 0.333802 0.920082
vt 0.333980 0.920082
vt 0.333980 0.920082
vt 0.333802 0.920082
vt 0.333802 0.849736
vt 0.333980 0.849736
vt 0.332199 0.920082
vt 0.332377 0.920082
vt 0.332377 0.849736
vt 0.332199 0.849736
vt 0.332377 0.816683
vt 0.332377 0.818486
vt 0.333980 0.849736
vt 0.333802 0.849736
vt 0.333802 0.920082
vt 0.333980 0.920082
vt 0.287253 0.785433
vt 0.287253 0.785433
vt 0.287253 0.785433
vt 0.287253 0.785433
vt 0.333980 0.818486
vt 0.333802 0.816683
vt 0.405710 0.892167
vt 0.405710 0.917907
vt 0.403206 0.917907
vt 0.403206 0.892167
vt 0.418544 0.876542
vt 0.418544 0.902282
vt 0.418544 0.902282
vt 0.418544 0.876542
vt 0.405710 0.952374
vt 0.403206 0.952374
vt 0.403206 0.952374
vt 0.405710 0.952374
vt 0.402893 0.876542
vt 0.402893 0.902282
vt 0.402893 0.902282
vt 0.402893 0.876542
vt 0.415727 0.892167
vt 0.415727 0.917907
vt 0.418232 0.917907
vt 0.418232 0.892167
vt 0.451898 0.920199
vt 0.451898 0.923417
vt 0.451659 0.923417
vt 0.451898 0.980407
vt 0.451898 0.983624
vt 0.451659 0.980407
vt 0.451898 0.920199
vt 0.451659 0.923417
vt 0.451898 0.923417
vt 0.451898 0.983624
vt 0.451898 0.980407
vt 0.451659 0.980407
vt 0.463364 0.920199
vt 0.463602 0.923417
vt 0.463364 0.923417
vt 0.463364 0.983624
vt 0.463364 0.980407
vt 0.463602 0.980407
vt 0.463364 0.920199
vt 0.463364 0.923417
vt 0.463602 0.923417
vt 0.463364 0.983624
vt 0.463602 0.980407
vt 0.463364 0.980407
vt 0.451898 0.949157
vt 0.451659 0.949157
vt 0.451898 0.949157
vt 0.451659 0.949157
vt 0.453809 0.920199
vt 0.453809 0.923417
vt 0.461453 0.983624
vt 0.461453 0.980407
vt 0.463602 0.949157
vt 0.463364 0.949157
vt 0.463364 0.949157
vt 0.463602 0.949157
vt 0.461453 0.920199
vt 0.461453 0.923417
vt 0.453809 0.983624
vt 0.453809 0.980407
vt 0.410970 0.857582
vt 0.410970 0.857582
vt 0.412837 0.857582
vt 0.412837 0.857582
vt 0.401638 0.857582
vt 0.401638 0.857582
vt 0.403504 0.857582
vt 0.403504 0.857582
vt 0.405371 0.857582
vt 0.405371 0.857582
vt 0.407237 0.857582
vt 0.407237 0.857582
vt 0.409104 0.857582
vt 0.409104 0.857582
vt 0.461453 0.983624
vt 0.461453 0.980407
vt 0.459542 0.983624
vt 0.459542 0.980407
vt 0.457631 0.983624
vt 0.457631 0.980407
vt 0.455720 0.983624
vt 0.455720 0.980407
vt 0.453809 0.920199
vt 0.453809 0.923417
vt 0.455720 0.920199
vt 0.455720 0.923417
vt 0.457631 0.920199
vt 0.457631 0.923417
vt 0.459542 0.920199
vt 0.459542 0.923417
vt 0.453809 0.983624
vt 0.453809 0.980407
vt 0.455720 0.983624
vt 0.455720 0.980407
vt 0.457631 0.983624
vt 0.457631 0.980407
vt 0.459542 0.983624
vt 0.459542 0.980407
vt 0.461453 0.920199
vt 0.461453 0.923417
vt 0.459542 0.920199
vt 0.459542 0.923417
vt 0.457631 0.920199
vt 0.457631 0.923417
vt 0.455720 0.920199
vt 0.455720 0.923417
vt 0.403206 0.892167
vt 0.403206 0.917907
vt 0.405710 0.917907
vt 0.405710 0.892167
vt 0.408214 0.917907
vt 0.408215 0.892167
vt 0.410719 0.917907
vt 0.410719 0.892167
vt 0.413223 0.917907
vt 0.413223 0.892167
vt 0.418232 0.952374
vt 0.415727 0.952374
vt 0.415727 0.952374
vt 0.418232 0.952374
vt 0.413223 0.952374
vt 0.413223 0.952374
vt 0.410719 0.952374
vt 0.410719 0.952374
vt 0.408215 0.952374
vt 0.408214 0.952374
vt 0.418232 0.892167
vt 0.418232 0.917907
vt 0.415727 0.917907
vt 0.415727 0.892167
vt 0.413223 0.917907
vt 0.413223 0.892167
vt 0.410719 0.917907
vt 0.410719 0.892167
vt 0.408215 0.917907
vt 0.408214 0.892167
vt 0.418232 0.892167
vt 0.418232 0.917907
vt 0.403206 0.917907
vt 0.403206 0.892167
vt 0.418544 0.876542
vt 0.418544 0.902282
vt 0.418544 0.902282
vt 0.418544 0.876542
vt 0.418232 0.952374
vt 0.403206 0.952374
vt 0.403206 0.952374
vt 0.418232 0.952374
vt 0.402893 0.876542
vt 0.402893 0.902282
vt 0.402893 0.902282
vt 0.402893 0.876542
vt 0.403206 0.892167
vt 0.403206 0.917907
vt 0.418232 0.917907
vt 0.418232 0.892167
vt 0.451898 0.920199
vt 0.451898 0.923417
vt 0.451659 0.923417
vt 0.451898 0.980407
vt 0.451898 0.983624
vt 0.451659 0.980407
vt 0.451898 0.920199
vt 0.451659 0.923417
vt 0.451898 0.923417
vt 0.451898 0.983624
vt 0.451898 0.980407
vt 0.451659 0.980407
vt 0.463364 0.920199
vt 0.463602 0.923417
vt 0.463364 0.923417
vt 0.463364 0.983624
vt 0.463364 0.980407
vt 0.463602 0.980407
vt 0.463364 0.920199
vt 0.463364 0.923417
vt 0.463602 0.923417
vt 0.463364 0.983624
vt 0.463602 0.980407
vt 0.463364 0.980407
vt 0.451898 0.949157
vt 0.451659 0.949157
vt 0.451898 0.949157
vt 0.451659 0.949157
vt 0.463602 0.949157
vt 0.463364 0.949157
vt 0.463364 0.949157
vt 0.463602 0.949157
vt 0.401638 0.857582
vt 0.401638 0.857582
vt 0.412837 0.857582
vt 0.412837 0.857582
vn 0.3416 -0.3416 0.8756
vn 0.0000 0.0000 1.0000
vn -0.3416 -0.3416 0.8756
vn 0.8756 -0.3416 -0.3416
vn 0.8756 0.3416 -0.3416
vn 0.8756 0.3416 0.3416
vn 0.8756 -0.3416 0.3416
vn 0.3416 0.8756 -0.3416
vn -0.3416 0.8756 -0.3416
vn -0.3416 0.8756 0.3416
vn 0.3416 0.8756 0.3416
vn -0.8756 -0.3416 0.3416
vn -0.8756 0.3416 0.3416
vn -0.8756 0.3416 -0.3416
vn -0.8756 -0.3416 -0.3416
vn -0.3416 -0.3416 -0.8756
vn 0.0000 0.0000 -1.0000
vn 0.3416 -0.3416 -0.8756
vn -0.3416 -0.8756 0.3416
vn -0.4606 0.4606 0.7588
vn -0.3416 -0.8756 -0.3416
vn -0.4606 0.4606 -0.7588
vn 0.3416 -0.8756 0.3416
vn 0.4606 0.4606 0.7588
vn 0.3416 -0.8756 -0.3416
vn 0.4606 0.4606 -0.7588
vn 0.3416 0.3416 0.8756
vn -0.3416 0.3416 0.8756
vn 0.8320 0.1844 -0.5232
vn 1.0000 0.0000 0.0000
vn 0.2961 0.8100 0.5062
vn -0.2961 0.8100 0.5062
vn -0.3242 0.7480 0.5791
vn 0.3242 0.7480 0.5791
vn -1.0000 0.0000 0.0000
vn -0.8320 0.1844 -0.5232
vn -0.6922 0.3825 0.6120
vn -0.2418 0.6861 -0.6861
vn 0.6922 0.3825 0.6120
vn 0.2418 0.6861 -0.6861
vn -0.6468 0.6468 0.4042
vn 0.6468 0.6468 0.4042
vn 0.3417 -0.3416 -0.8755
vn -0.9239 0.0000 0.3827
vn -0.9239 0.0000 -0.3827
vn 0.0002 0.0000 -1.0000
vn 0.3828 0.0000 -0.9238
vn 0.9239 0.0000 -0.3827
vn 0.9239 0.0000 0.3827
vn -0.4606 -0.4606 0.7588
vn 0.4606 -0.4606 0.7588
vn -0.4605 -0.4606 -0.7588
vn -0.7071 0.0000 0.7071
vn 0.7071 0.0000 0.7071
vn -0.7071 0.0000 -0.7071
vn 0.3417 -0.3416 0.8755
vn 0.3828 0.0000 0.9238
vn 0.0002 0.0000 1.0000
vn -0.4606 -0.4606 -0.7588
vn 0.4606 -0.4606 -0.7588
vn -0.4605 -0.4606 0.7588
vn 0.7071 0.0000 -0.7071
vn 0.0000 -0.4226 0.9063
vn 0.0000 0.4226 0.9063
vn 0.3817 0.3251 0.8652
vn 0.3817 -0.3251 0.8652
vn 0.0000 0.9239 -0.3827
vn -0.5048 0.8447 0.1779
vn 0.0000 1.0000 0.0000
vn 0.0000 -0.3827 -0.9239
vn 0.3416 0.3416 -0.8756
vn -0.5048 -0.8447 0.1779
vn -0.6861 -0.2418 0.6861
vn -0.6861 0.2418 0.6861
vn -0.7588 -0.4606 -0.4606
vn -0.3416 0.3416 -0.8756
vn -0.7588 0.4606 -0.4606
vn 0.5048 -0.8447 0.1779
vn 0.6861 -0.2418 0.6861
vn 0.5048 0.8447 0.1779
vn 0.6861 0.2418 0.6861
vn 0.7588 -0.4606 -0.4606
vn 0.7588 0.4606 -0.4606
vn 0.0000 -0.9239 -0.3827
vn 0.0000 -0.7071 -0.7071
vn 0.0000 0.7071 -0.7071
vn -0.0000 -0.7071 0.7071
vn -0.2978 -0.6750 0.6750
vn -0.3817 -0.3251 0.8652
vn 0.0000 0.7071 0.7071
vn 0.2978 0.6750 0.6750
vn 0.0000 -1.0000 0.0000
vn -0.2978 0.6750 0.6750
vn -0.3817 0.3251 0.8652
vn 0.0000 0.3517 0.9361
vn 0.2978 -0.6750 0.6750
vn 0.0000 -0.3517 0.9361
vn 0.0000 0.3827 -0.9239
usemtl prototype_texture
s 1
f 12/1/1 14/2/2 3/3/2 1/4/3
f 17/5/4 19/6/5 15/7/6 11/8/7
f 18/9/8 8/10/9 4/11/10 13/12/11
f 2/13/12 5/14/13 10/15/14 6/16/15
f 7/17/16 9/18/17 20/19/17 16/20/18
f 22/21/19 1/22/3 2/23/12
f 3/24/20 4/25/10 5/26/13
f 21/27/21 6/28/15 7/29/16
f 8/30/9 9/31/22 10/32/14
f 24/33/23 11/34/7 12/35/1
f 13/36/11 14/37/24 15/38/6
f 23/39/25 16/40/18 17/41/4
f 18/42/8 19/43/5 20/44/26
f 21/27/21 22/21/19 2/23/12 6/28/15
f 1/22/3 3/45/20 5/46/13 2/23/12
f 4/25/10 8/30/9 10/32/14 5/26/13
f 9/47/22 7/29/16 6/28/15 10/48/14
f 23/39/25 21/27/21 7/29/16 16/40/18
f 8/30/9 18/42/8 20/44/26 9/31/22
f 19/49/5 17/41/4 16/40/18 20/50/26
f 24/33/23 23/39/25 17/41/4 11/34/7
f 18/42/8 13/36/11 15/38/6 19/43/5
f 14/51/24 12/35/1 11/34/7 15/52/6
f 22/21/19 24/33/23 12/35/1 1/22/3
f 13/36/11 4/25/10 3/24/20 14/37/24
f 22/53/19 21/54/21 23/55/25 24/56/23
f 36/57/1 38/58/27 27/59/28 25/60/3
f 41/61/4 43/62/29 39/63/30 35/64/7
f 42/65/31 32/66/32 28/67/33 37/68/34
f 26/69/12 29/70/35 34/71/36 30/72/15
f 31/73/16 33/74/17 44/75/17 40/76/18
f 46/77/19 25/78/3 26/79/12
f 27/80/28 28/81/33 29/82/37
f 45/83/21 30/84/15 31/85/16
f 32/86/38 33/87/22 34/88/36
f 48/89/23 35/90/7 36/91/1
f 37/92/34 38/93/27 39/94/39
f 47/95/25 40/96/18 41/97/4
f 42/98/40 43/99/29 44/100/26
f 45/83/21 46/77/19 26/79/12 30/84/15
f 25/78/3 27/101/28 29/102/37 26/79/12
f 28/81/33 32/86/32 34/88/41 29/82/37
f 33/103/22 31/85/16 30/84/15 34/104/36
f 47/95/25 45/83/21 31/85/16 40/96/18
f 32/86/38 42/98/40 44/100/26 33/87/22
f 43/105/29 41/97/4 40/96/18 44/106/26
f 48/89/23 47/95/25 41/97/4 35/90/7
f 42/98/31 37/92/34 39/94/39 43/99/42
f 38/107/27 36/91/1 35/90/7 39/108/39
f 46/77/19 48/89/23 36/91/1 25/78/3
f 37/92/34 28/81/33 27/80/28 38/93/27
f 46/109/19 45/110/21 47/111/25 48/112/23
f 66/113/25 65/114/43 64/115/4
f 60/116/15 51/117/12 52/118/44 63/119/45
f 65/120/43 61/121/46 62/122/46 67/123/47
f 55/124/7 64/125/4 68/126/48 58/127/49
f 50/128/2 56/129/2 57/130/2 53/131/2
f 49/132/19 50/133/50 51/134/12
f 54/135/23 55/136/7 56/137/51
f 59/138/21 60/139/15 61/140/52
f 56/137/51 50/133/50 49/132/19 54/135/23
f 50/141/50 53/142/53 52/143/44 51/144/12
f 57/145/54 56/146/51 55/147/7 58/148/49
f 62/149/55 61/150/52 60/151/15 63/152/45
f 51/134/12 60/139/15 59/138/21 49/132/19
f 64/115/4 55/153/7 54/154/23 66/113/25
f 65/155/43 67/156/47 68/157/48 64/158/4
f 59/159/21 66/160/25 54/161/23 49/162/19
f 61/163/52 65/114/43 66/113/25 59/164/21
f 86/165/23 84/166/7 85/167/56
f 80/168/12 83/169/44 72/170/45 71/171/15
f 85/172/56 87/173/57 82/174/58 81/175/58
f 75/176/4 78/177/48 88/178/49 84/179/7
f 70/180/17 73/181/17 77/182/17 76/183/17
f 69/184/21 71/185/15 70/186/59
f 74/187/25 76/188/60 75/189/4
f 79/190/19 81/191/61 80/192/12
f 76/188/60 74/187/25 69/184/21 70/186/59
f 70/193/59 71/194/15 72/195/45 73/196/55
f 77/197/62 78/198/48 75/199/4 76/200/60
f 82/201/53 83/202/44 80/203/12 81/204/61
f 71/185/15 69/184/21 79/190/19 80/192/12
f 84/166/7 86/165/23 74/205/25 75/206/4
f 85/207/56 84/208/7 88/209/49 87/210/57
f 79/211/19 69/212/21 74/213/25 86/214/23
f 81/215/61 79/216/19 86/165/23 85/167/56
f 142/217/63 148/218/64 91/219/65 89/220/66
f 105/221/30 107/222/30 103/223/6 99/224/7
f 123/225/67 96/226/9 92/227/68 147/228/69
f 90/229/12 93/230/13 98/231/35 94/232/35
f 122/233/70 128/234/17 108/235/71 104/236/18
f 110/237/72 89/238/73 90/239/12
f 91/240/74 92/241/68 93/242/13
f 109/243/21 94/244/75 95/245/16
f 96/246/9 97/247/76 98/248/77
f 112/249/78 99/250/7 100/251/79
f 101/252/80 102/253/81 103/254/6
f 111/255/25 104/256/18 105/257/82
f 106/258/8 107/259/83 108/260/71
f 109/243/21 110/237/72 90/239/12 94/244/75
f 89/238/73 91/261/74 93/262/13 90/239/12
f 92/241/68 96/246/9 98/248/77 93/242/13
f 97/263/76 95/245/16 94/244/75 98/264/77
f 117/265/84 109/243/21 95/245/16 118/266/85
f 127/267/67 106/258/8 108/260/71 128/268/86
f 107/269/83 105/257/82 104/256/18 108/270/71
f 112/249/78 111/255/25 105/257/82 99/250/7
f 106/258/8 101/252/80 103/254/6 107/259/83
f 102/271/81 100/251/79 99/250/7 103/272/6
f 137/273/87 112/249/88 100/251/89 138/274/63
f 147/275/90 92/241/91 91/240/65 148/276/64
f 137/277/92 113/278/84 111/279/25 112/280/78
f 110/281/72 109/282/21 117/283/84 133/284/92
f 133/284/92 117/283/84 116/285/84 134/286/92
f 134/286/92 116/285/84 115/287/84 135/288/92
f 135/288/92 115/287/84 114/289/84 136/290/92
f 136/290/92 114/289/84 113/278/84 137/277/92
f 101/252/93 143/291/90 152/292/64 102/253/94
f 143/291/90 144/293/90 151/294/95 152/292/64
f 144/293/90 145/295/90 150/296/64 151/294/95
f 145/295/90 146/297/90 149/298/95 150/296/64
f 146/297/90 147/275/90 148/276/64 149/298/95
f 110/237/96 133/299/87 142/300/63 89/238/66
f 133/299/87 134/301/87 141/302/97 142/300/63
f 134/301/87 135/303/87 140/304/63 141/302/97
f 135/303/87 136/305/87 139/306/97 140/304/63
f 136/305/87 137/273/87 138/274/63 139/306/97
f 96/246/9 123/307/67 132/308/98 97/247/76
f 123/307/67 124/309/67 131/310/86 132/308/98
f 124/309/67 125/311/67 130/312/86 131/310/86
f 125/311/67 126/313/67 129/314/86 130/312/86
f 126/313/67 127/267/67 128/268/86 129/314/86
f 111/255/25 113/315/84 122/316/70 104/256/18
f 113/315/84 114/317/84 121/318/70 122/316/70
f 114/317/84 115/319/84 120/320/70 121/318/70
f 115/319/84 116/321/84 119/322/70 120/320/70
f 116/321/84 117/265/84 118/266/85 119/322/70
f 95/323/16 97/324/76 132/325/98 118/326/17
f 118/326/17 132/325/98 131/327/17 119/328/70
f 119/328/70 131/327/17 130/329/17 120/330/70
f 120/330/70 130/329/17 129/331/17 121/332/70
f 121/332/70 129/331/17 128/234/17 122/233/70
f 106/333/8 127/334/67 143/335/69 101/336/80
f 127/334/67 126/337/67 144/338/69 143/335/69
f 126/337/67 125/339/67 145/340/69 144/338/69
f 125/339/67 124/341/67 146/342/69 145/340/69
f 124/341/67 123/225/67 147/228/69 146/342/69
f 100/343/89 102/344/94 152/345/64 138/346/63
f 138/346/63 152/345/64 151/347/95 139/348/97
f 139/348/97 151/347/95 150/349/64 140/350/63
f 140/350/63 150/349/64 149/351/95 141/352/97
f 141/352/97 149/351/95 148/218/64 142/217/63
f 164/353/2 166/354/2 155/355/2 153/356/2
f 169/357/4 171/358/5 167/359/6 163/360/7
f 170/361/8 160/362/9 156/363/10 165/364/11
f 154/365/12 157/366/13 162/367/14 158/368/15
f 159/369/17 161/370/17 172/371/17 168/372/17
f 174/373/19 153/374/50 154/375/12
f 155/376/20 156/377/10 157/378/13
f 173/379/21 158/380/15 159/381/59
f 160/382/9 161/383/22 162/384/14
f 176/385/23 163/386/7 164/387/51
f 165/388/11 166/389/24 167/390/6
f 175/391/25 168/392/60 169/393/4
f 170/394/8 171/395/5 172/396/26
f 173/379/21 174/373/19 154/375/12 158/380/15
f 153/374/50 155/397/20 157/398/13 154/375/12
f 156/377/10 160/382/9 162/384/14 157/378/13
f 161/399/22 159/381/59 158/380/15 162/400/14
f 175/391/25 173/379/21 159/381/59 168/392/60
f 160/382/9 170/394/8 172/396/26 161/383/22
f 171/401/5 169/393/4 168/392/60 172/402/26
f 176/385/23 175/391/25 169/393/4 163/386/7
f 170/394/8 165/388/11 167/390/6 171/395/5
f 166/403/24 164/387/51 163/386/7 167/404/6
f 174/373/19 176/385/23 164/387/51 153/374/50
f 165/388/11 156/377/10 155/376/20 166/389/24
f 174/405/19 173/406/21 175/407/25 176/408/23
