# Blender v3.4.1 OBJ File: 'Prototype_Bits_Export.blend'
# www.blender.org
mtllib Workbench.mtl
o Workbench_Cube.522
v 1.430000 -0.000000 0.680000
v 1.450000 0.020000 0.680000
v 1.430000 0.020000 0.700000
v 1.430000 0.800000 0.700000
v 1.450000 0.800000 0.680000
v 1.430000 -0.000000 0.520000
v 1.430000 0.020000 0.500000
v 1.450000 0.020000 0.520000
v 1.450000 0.800000 0.520000
v 1.430000 0.800000 0.500000
v 1.270000 -0.000000 0.680000
v 1.270000 0.020000 0.700000
v 1.250000 0.020000 0.680000
v 1.250000 0.800000 0.680000
v 1.270000 0.800000 0.700000
v 1.270000 -0.000000 0.520000
v 1.260000 0.020000 0.510000
v 1.260000 0.800000 0.510000
v -1.430000 -0.000000 0.680000
v -1.450000 0.020000 0.680000
v -1.430000 0.020000 0.700000
v -1.430000 0.800000 0.700000
v -1.450000 0.800000 0.680000
v -1.430000 -0.000000 0.520000
v -1.430000 0.020000 0.500000
v -1.450000 0.020000 0.520000
v -1.450000 0.800000 0.520000
v -1.430000 0.800000 0.500000
v -1.270000 -0.000000 0.680000
v -1.270000 0.020000 0.700000
v -1.250000 0.020000 0.680000
v -1.250000 0.800000 0.680000
v -1.270000 0.800000 0.700000
v -1.270000 -0.000000 0.520000
v -1.260000 0.020000 0.510000
v -1.260000 0.800000 0.510000
v -1.430000 -0.000000 -0.680000
v -1.450000 0.020000 -0.680000
v -1.430000 0.020000 -0.700000
v -1.430000 0.800000 -0.700000
v -1.450000 0.800000 -0.680000
v -1.430000 -0.000000 -0.520000
v -1.430000 0.020000 -0.500000
v -1.450000 0.020000 -0.520000
v -1.450000 0.800000 -0.520000
v -1.430000 0.800000 -0.500000
v -1.270000 -0.000000 -0.680000
v -1.270000 0.020000 -0.700000
v -1.250000 0.020000 -0.680000
v -1.250000 0.800000 -0.680000
v -1.270000 0.800000 -0.700000
v -1.270000 -0.000000 -0.520000
v -1.260000 0.020000 -0.510000
v -1.260000 0.800000 -0.510000
v 1.430000 -0.000000 -0.680000
v 1.450000 0.020000 -0.680000
v 1.430000 0.020000 -0.700000
v 1.430000 0.800000 -0.700000
v 1.450000 0.800000 -0.680000
v 1.430000 -0.000000 -0.520000
v 1.430000 0.020000 -0.500000
v 1.450000 0.020000 -0.520000
v 1.450000 0.800000 -0.520000
v 1.430000 0.800000 -0.500000
v 1.270000 -0.000000 -0.680000
v 1.270000 0.020000 -0.700000
v 1.250000 0.020000 -0.680000
v 1.250000 0.800000 -0.680000
v 1.270000 0.800000 -0.700000
v 1.270000 -0.000000 -0.520000
v 1.260000 0.020000 -0.510000
v 1.260000 0.800000 -0.510000
v -1.480000 0.820000 0.750000
v -1.500000 0.820000 0.730000
v -1.480000 0.980000 0.750000
v -1.480000 1.000000 0.730000
v -1.500000 0.980000 0.730000
v -1.500000 0.820000 -0.730000
v -1.480000 0.820000 -0.750000
v -1.480000 1.000000 -0.730000
v -1.480000 0.980000 -0.750000
v -1.500000 0.980000 -0.730000
v 1.500000 0.820000 0.730000
v 1.480000 0.820000 0.750000
v 1.480000 1.000000 0.730000
v 1.480000 0.980000 0.750000
v 1.500000 0.980000 0.730000
v 1.480000 0.820000 -0.750000
v 1.500000 0.820000 -0.730000
v 1.480000 1.000000 -0.730000
v 1.500000 0.980000 -0.730000
v 1.480000 0.980000 -0.750000
v -1.480000 0.800000 -0.730000
v -1.480000 0.800000 0.730000
v 1.480000 0.800000 -0.730000
v 1.480000 0.800000 0.730000
v -1.480000 1.020000 -0.550000
v -1.500000 1.020000 -0.570000
v -1.480000 2.480000 -0.550000
v -1.480000 2.500000 -0.570000
v -1.500000 2.480000 -0.570000
v -1.500000 1.020000 -0.730000
v -1.480000 1.020000 -0.750000
v -1.480000 2.500000 -0.730000
v -1.480000 2.480000 -0.750000
v -1.500000 2.480000 -0.730000
v 1.500000 1.020000 -0.570000
v 1.480000 1.020000 -0.550000
v 1.480000 2.500000 -0.570000
v 1.480000 2.480000 -0.550000
v 1.500000 2.480000 -0.570000
v 1.480000 1.020000 -0.750000
v 1.500000 1.020000 -0.730000
v 1.480000 2.500000 -0.730000
v 1.500000 2.480000 -0.730000
v 1.480000 2.480000 -0.750000
v -1.480000 1.000000 -0.730000
v -1.480000 1.000000 -0.570000
v 1.480000 1.000000 -0.730000
v 1.480000 1.000000 -0.570000
v -1.299994 1.050000 0.550000
v -1.299994 1.050000 -0.350000
v -0.399994 1.050000 0.550000
v -0.399994 1.050000 -0.350000
v 0.500006 1.050000 0.550000
v 0.500006 1.050000 -0.350000
v -1.299994 1.000000 0.550000
v -1.299994 1.000000 -0.350000
v -0.399994 1.000000 0.550000
v -0.399994 1.000000 -0.350000
v 0.500006 1.000000 -0.350000
v 0.500006 1.000000 0.550000
v -1.480000 2.520000 -0.450000
v -1.500000 2.520000 -0.470000
v -1.480000 2.580000 -0.450000
v -1.480000 2.600000 -0.470000
v -1.500000 2.580000 -0.470000
v -1.500000 2.520000 -0.730000
v -1.480000 2.520000 -0.750000
v -1.480000 2.600000 -0.730000
v -1.480000 2.580000 -0.750000
v -1.500000 2.580000 -0.730000
v 1.500000 2.520000 -0.470000
v 1.480000 2.520000 -0.450000
v 1.480000 2.600000 -0.470000
v 1.480000 2.580000 -0.450000
v 1.500000 2.580000 -0.470000
v 1.480000 2.520000 -0.750000
v 1.500000 2.520000 -0.730000
v 1.480000 2.600000 -0.730000
v 1.500000 2.580000 -0.730000
v 1.480000 2.580000 -0.750000
v -1.480000 2.500000 -0.730000
v -1.480000 2.500000 -0.470000
v 1.480000 2.500000 -0.730000
v 1.480000 2.500000 -0.470000
vt 0.777221 0.785433
vt 0.777221 0.785433
vt 0.779088 0.785433
vt 0.785387 0.785433
vt 0.787253 0.785433
vt 0.785387 0.785433
vt 0.787253 0.785433
vt 0.787253 0.785433
vt 0.785387 0.785433
vt 0.779088 0.785433
vt 0.777221 0.785433
vt 0.779088 0.785433
vt 0.785387 0.818486
vt 0.787253 0.818486
vt 0.787253 0.888832
vt 0.785387 0.888832
vt 0.785270 0.802861
vt 0.785154 0.802861
vt 0.785154 0.873207
vt 0.785270 0.873207
vt 0.787253 0.818486
vt 0.785270 0.818486
vt 0.785270 0.888832
vt 0.787253 0.888832
vt 0.787487 0.802861
vt 0.787487 0.802861
vt 0.787487 0.873207
vt 0.787487 0.873207
vt 0.833802 0.816683
vt 0.833980 0.818486
vt 0.833802 0.818486
vt 0.833802 0.816683
vt 0.833802 0.818486
vt 0.833980 0.818486
vt 0.832377 0.816683
vt 0.832377 0.818486
vt 0.832199 0.818486
vt 0.833980 0.849736
vt 0.833980 0.920082
vt 0.833802 0.920082
vt 0.833802 0.849736
vt 0.833980 0.920082
vt 0.833980 0.849736
vt 0.833802 0.849736
vt 0.833802 0.920082
vt 0.832289 0.818486
vt 0.832377 0.816683
vt 0.832199 0.920082
vt 0.832199 0.849736
vt 0.832377 0.849736
vt 0.832377 0.920082
vt 0.787253 0.785433
vt 0.779088 0.818486
vt 0.779088 0.888832
vt 0.777221 0.888832
vt 0.777221 0.818486
vt 0.779204 0.802861
vt 0.779204 0.873207
vt 0.779321 0.873207
vt 0.779321 0.802861
vt 0.777221 0.818486
vt 0.777221 0.888832
vt 0.779204 0.888832
vt 0.779204 0.818486
vt 0.776988 0.802861
vt 0.776988 0.873207
vt 0.776988 0.873207
vt 0.776988 0.802861
vt 0.826146 0.816683
vt 0.826146 0.818486
vt 0.825968 0.818486
vt 0.826146 0.816683
vt 0.825968 0.818486
vt 0.826146 0.818486
vt 0.827571 0.816683
vt 0.827749 0.818486
vt 0.827571 0.818486
vt 0.825968 0.849736
vt 0.826146 0.849736
vt 0.826146 0.920082
vt 0.825968 0.920082
vt 0.825968 0.920082
vt 0.826146 0.920082
vt 0.826146 0.849736
vt 0.825968 0.849736
vt 0.827660 0.818486
vt 0.827571 0.816683
vt 0.827749 0.920082
vt 0.827571 0.920082
vt 0.827571 0.849736
vt 0.827749 0.849736
vt 0.779088 0.785433
vt 0.779088 0.818486
vt 0.777221 0.818486
vt 0.777221 0.888832
vt 0.779088 0.888832
vt 0.779204 0.802861
vt 0.779321 0.802861
vt 0.779321 0.873207
vt 0.779204 0.873207
vt 0.777221 0.818486
vt 0.779204 0.818486
vt 0.779204 0.888832
vt 0.777221 0.888832
vt 0.776988 0.802861
vt 0.776988 0.802861
vt 0.776988 0.873207
vt 0.776988 0.873207
vt 0.826146 0.816683
vt 0.825968 0.818486
vt 0.826146 0.818486
vt 0.826146 0.816683
vt 0.826146 0.818486
vt 0.825968 0.818486
vt 0.827571 0.816683
vt 0.827571 0.818486
vt 0.827749 0.818486
vt 0.825968 0.849736
vt 0.825968 0.920082
vt 0.826146 0.920082
vt 0.826146 0.849736
vt 0.825968 0.920082
vt 0.825968 0.849736
vt 0.826146 0.849736
vt 0.826146 0.920082
vt 0.827660 0.818486
vt 0.827571 0.816683
vt 0.827749 0.920082
vt 0.827749 0.849736
vt 0.827571 0.849736
vt 0.827571 0.920082
vt 0.777221 0.785433
vt 0.785387 0.818486
vt 0.785387 0.888832
vt 0.787253 0.888832
vt 0.787253 0.818486
vt 0.785270 0.802861
vt 0.785270 0.873207
vt 0.785154 0.873207
vt 0.785154 0.802861
vt 0.787253 0.818486
vt 0.787253 0.888832
vt 0.785270 0.888832
vt 0.785270 0.818486
vt 0.787487 0.802861
vt 0.787487 0.873207
vt 0.787487 0.873207
vt 0.787487 0.802861
vt 0.833802 0.816683
vt 0.833802 0.818486
vt 0.833980 0.818486
vt 0.833802 0.816683
vt 0.833980 0.818486
vt 0.833802 0.818486
vt 0.832377 0.816683
vt 0.832199 0.818486
vt 0.832377 0.818486
vt 0.833980 0.849736
vt 0.833802 0.849736
vt 0.833802 0.920082
vt 0.833980 0.920082
vt 0.833980 0.920082
vt 0.833802 0.920082
vt 0.833802 0.849736
vt 0.833980 0.849736
vt 0.832289 0.818486
vt 0.832377 0.816683
vt 0.832199 0.920082
vt 0.832377 0.920082
vt 0.832377 0.849736
vt 0.832199 0.849736
vt 0.785387 0.785433
vt 0.043232 0.642167
vt 0.043232 0.667907
vt 0.028206 0.667907
vt 0.028206 0.642167
vt 0.043544 0.626542
vt 0.043544 0.652282
vt 0.043544 0.652282
vt 0.043544 0.626542
vt 0.043232 0.702374
vt 0.028206 0.702374
vt 0.028206 0.702374
vt 0.043232 0.702374
vt 0.027893 0.626542
vt 0.027893 0.652282
vt 0.027893 0.652282
vt 0.027893 0.626542
vt 0.028206 0.642167
vt 0.028206 0.667907
vt 0.043232 0.667907
vt 0.043232 0.642167
vt 0.076898 0.670199
vt 0.076898 0.673417
vt 0.076659 0.673417
vt 0.076898 0.730407
vt 0.076898 0.733624
vt 0.076659 0.730407
vt 0.076898 0.670199
vt 0.076659 0.673417
vt 0.076898 0.673417
vt 0.076898 0.733624
vt 0.076898 0.730407
vt 0.076659 0.730407
vt 0.088364 0.670199
vt 0.088602 0.673417
vt 0.088364 0.673417
vt 0.088364 0.733624
vt 0.088364 0.730407
vt 0.088602 0.730407
vt 0.088364 0.670199
vt 0.088364 0.673417
vt 0.088602 0.673417
vt 0.088364 0.733624
vt 0.088602 0.730407
vt 0.088364 0.730407
vt 0.076898 0.699157
vt 0.076659 0.699157
vt 0.076898 0.699157
vt 0.076659 0.699157
vt 0.088602 0.699157
vt 0.088364 0.699157
vt 0.088364 0.699157
vt 0.088602 0.699157
vt 0.026638 0.607582
vt 0.026638 0.607582
vt 0.037837 0.607582
vt 0.037837 0.607582
vt 0.793232 0.892167
vt 0.793232 0.917907
vt 0.778206 0.917907
vt 0.778206 0.892167
vt 0.793544 0.876542
vt 0.793544 0.902282
vt 0.793544 0.902282
vt 0.793544 0.876542
vt 0.793232 0.952374
vt 0.778206 0.952374
vt 0.778206 0.952374
vt 0.793232 0.952374
vt 0.777893 0.876542
vt 0.777893 0.902282
vt 0.777893 0.902282
vt 0.777893 0.876542
vt 0.778206 0.892167
vt 0.778206 0.917907
vt 0.793232 0.917907
vt 0.793232 0.892167
vt 0.826898 0.920199
vt 0.826898 0.923417
vt 0.826659 0.923417
vt 0.826898 0.980407
vt 0.826898 0.983624
vt 0.826659 0.980407
vt 0.826898 0.920199
vt 0.826659 0.923417
vt 0.826898 0.923417
vt 0.826898 0.983624
vt 0.826898 0.980407
vt 0.826659 0.980407
vt 0.838364 0.920199
vt 0.838602 0.923417
vt 0.838364 0.923417
vt 0.838364 0.983624
vt 0.838364 0.980407
vt 0.838602 0.980407
vt 0.838364 0.920199
vt 0.838364 0.923417
vt 0.838602 0.923417
vt 0.838364 0.983624
vt 0.838602 0.980407
vt 0.838364 0.980407
vt 0.826898 0.949157
vt 0.826659 0.949157
vt 0.826898 0.949157
vt 0.826659 0.949157
vt 0.838602 0.949157
vt 0.838364 0.949157
vt 0.838364 0.949157
vt 0.838602 0.949157
vt 0.776638 0.857582
vt 0.776638 0.857582
vt 0.787837 0.857582
vt 0.787837 0.857582
vt 0.038937 0.038938
vt 0.211062 0.038938
vt 0.211063 0.211063
vt 0.038938 0.211062
vt 0.038937 0.038938
vt 0.211062 0.038938
vt 0.211063 0.211063
vt 0.038938 0.211062
vt 0.211063 0.211063
vt 0.038938 0.211062
vt 0.211062 0.038938
vt 0.211063 0.211063
vt 0.038938 0.211062
vt 0.038937 0.038938
vt 0.038937 0.038938
vt 0.211062 0.038938
vt 0.043232 0.642167
vt 0.043232 0.667907
vt 0.028206 0.667907
vt 0.028206 0.642167
vt 0.043544 0.626542
vt 0.043544 0.652282
vt 0.043544 0.652282
vt 0.043544 0.626542
vt 0.043232 0.702374
vt 0.028206 0.702374
vt 0.028206 0.702374
vt 0.043232 0.702374
vt 0.027893 0.626542
vt 0.027893 0.652282
vt 0.027893 0.652282
vt 0.027893 0.626542
vt 0.028206 0.642167
vt 0.028206 0.667907
vt 0.043232 0.667907
vt 0.043232 0.642167
vt 0.076898 0.670199
vt 0.076898 0.673417
vt 0.076659 0.673417
vt 0.076898 0.730407
vt 0.076898 0.733624
vt 0.076659 0.730407
vt 0.076898 0.670199
vt 0.076659 0.673417
vt 0.076898 0.673417
vt 0.076898 0.733624
vt 0.076898 0.730407
vt 0.076659 0.730407
vt 0.088364 0.670199
vt 0.088602 0.673417
vt 0.088364 0.673417
vt 0.088364 0.733624
vt 0.088364 0.730407
vt 0.088602 0.730407
vt 0.088364 0.670199
vt 0.088364 0.673417
vt 0.088602 0.673417
vt 0.088364 0.733624
vt 0.088602 0.730407
vt 0.088364 0.730407
vt 0.076898 0.699157
vt 0.076659 0.699157
vt 0.076898 0.699157
vt 0.076659 0.699157
vt 0.088602 0.699157
vt 0.088364 0.699157
vt 0.088364 0.699157
vt 0.088602 0.699157
vt 0.026638 0.607582
vt 0.026638 0.607582
vt 0.037837 0.607582
vt 0.037837 0.607582
vn -0.3416 -0.8756 0.3416
vn -0.3411 -0.8609 -0.3774
vn 0.3774 -0.8609 0.3411
vn 0.0000 -1.0000 0.0000
vn 0.3411 -0.8609 -0.3774
vn -0.3774 -0.8609 0.3411
vn 0.3416 -0.8756 -0.3416
vn 0.3411 -0.8609 0.3774
vn -0.3774 -0.8609 -0.3411
vn -0.3411 -0.8609 0.3774
vn 0.3774 -0.8609 -0.3411
vn -0.3416 -0.3416 0.8756
vn 0.3416 -0.3416 0.8756
vn 0.3827 0.0000 0.9239
vn -0.3827 0.0000 0.9239
vn -0.9610 -0.2725 -0.0463
vn -0.8983 -0.3048 0.3165
vn -0.9983 0.0000 -0.0587
vn 0.3165 -0.3048 -0.8983
vn -0.0463 -0.2725 -0.9610
vn -0.0587 0.0000 -0.9983
vn 1.0000 0.0000 0.0000
vn 0.3416 -0.8756 0.3416
vn 0.7588 -0.4606 0.4606
vn 0.7588 -0.4606 -0.4606
vn 0.7071 0.0000 0.7071
vn 0.7071 0.0000 -0.7071
vn -0.0241 -0.6037 -0.7969
vn -0.7969 -0.6037 -0.0241
vn -0.7071 0.0000 0.7071
vn 0.9610 -0.2725 -0.0463
vn 0.9983 0.0000 -0.0587
vn 0.8983 -0.3048 0.3165
vn -0.3165 -0.3048 -0.8983
vn 0.0587 0.0000 -0.9983
vn 0.0463 -0.2725 -0.9610
vn -1.0000 0.0000 0.0000
vn -0.7588 -0.4606 0.4606
vn -0.7588 -0.4606 -0.4606
vn -0.7071 0.0000 -0.7071
vn 0.0241 -0.6037 -0.7969
vn 0.7969 -0.6037 -0.0241
vn 0.3416 -0.3416 -0.8756
vn -0.3416 -0.3416 -0.8756
vn -0.3827 0.0000 -0.9239
vn 0.3827 0.0000 -0.9239
vn 0.9610 -0.2725 0.0463
vn 0.8983 -0.3048 -0.3165
vn 0.9983 0.0000 0.0587
vn -0.3165 -0.3048 0.8983
vn 0.0463 -0.2725 0.9610
vn 0.0587 0.0000 0.9983
vn -0.3416 -0.8756 -0.3416
vn 0.0241 -0.6037 0.7969
vn 0.7969 -0.6037 0.0241
vn -0.9610 -0.2725 0.0463
vn -0.9983 0.0000 0.0587
vn -0.8983 -0.3048 -0.3165
vn 0.3165 -0.3048 0.8983
vn -0.0587 0.0000 0.9983
vn -0.0463 -0.2725 0.9610
vn -0.0241 -0.6037 0.7969
vn -0.7969 -0.6037 0.0241
vn 0.3416 0.3416 0.8756
vn -0.3416 0.3416 0.8756
vn 0.3416 0.8756 -0.3416
vn -0.3416 0.8756 -0.3416
vn -0.3416 0.8756 0.3416
vn 0.3416 0.8756 0.3416
vn -0.3416 0.3416 -0.8756
vn 0.3416 0.3416 -0.8756
vn -0.7588 0.4606 0.4606
vn -0.7588 0.4606 -0.4606
vn 0.7588 0.4606 0.4606
vn 0.7588 0.4606 -0.4606
vn 0.8756 -0.3416 -0.3416
vn 0.8756 0.3416 -0.3416
vn 0.8756 0.3416 0.3416
vn 0.8756 -0.3416 0.3416
vn -0.8756 -0.3416 0.3416
vn -0.8756 0.3416 0.3416
vn -0.8756 0.3416 -0.3416
vn -0.8756 -0.3416 -0.3416
vn -0.4606 -0.7588 0.4606
vn -0.4606 -0.7588 -0.4606
vn 0.4606 -0.7588 0.4606
vn 0.4606 -0.7588 -0.4606
vn 0.0000 1.0000 0.0000
vn 0.0000 0.0000 -1.0000
vn 0.0000 0.0000 1.0000
vn -0.4606 -0.4606 0.7588
vn -0.4606 0.4606 0.7588
vn -0.4606 -0.4606 -0.7588
vn -0.4606 0.4606 -0.7588
vn 0.4606 -0.4606 0.7588
vn 0.4606 0.4606 0.7588
vn 0.4606 -0.4606 -0.7588
vn 0.4606 0.4606 -0.7588
usemtl prototype_texture
s 1
f 19/1/1 24/2/2 29/3/3
f 16/4/4 6/5/5 11/6/6
f 55/7/7 60/8/8 65/9/9
f 52/10/4 42/11/10 47/12/11
f 12/13/12 3/14/13 4/15/14 15/16/15
f 17/17/16 13/18/17 14/19/18 18/20/18
f 7/21/19 17/22/20 18/23/21 10/24/21
f 2/25/22 8/26/22 9/27/22 5/28/22
f 1/29/23 2/30/24 3/31/13
f 6/32/5 7/33/19 8/34/25
f 11/35/6 12/36/12 13/37/17
f 8/34/25 2/30/24 1/29/23 6/32/5
f 2/38/24 5/39/26 4/40/14 3/41/13
f 9/42/27 8/43/25 7/44/19 10/45/27
f 17/46/20 7/33/19 6/32/5 16/47/28
f 13/37/17 17/46/16 16/47/29 11/35/6
f 14/48/30 13/49/17 12/50/12 15/51/15
f 3/31/13 12/36/12 11/35/6 1/29/23
f 6/5/5 1/52/23 11/6/6
f 30/53/13 33/54/14 22/55/15 21/56/12
f 35/57/31 36/58/32 32/59/32 31/60/33
f 25/61/34 28/62/35 36/63/35 35/64/36
f 20/65/37 23/66/37 27/67/37 26/68/37
f 19/69/1 21/70/12 20/71/38
f 24/72/2 26/73/39 25/74/34
f 29/75/3 31/76/33 30/77/13
f 26/73/39 24/72/2 19/69/1 20/71/38
f 20/78/38 21/79/12 22/80/15 23/81/30
f 27/82/40 28/83/40 25/84/34 26/85/39
f 35/86/36 34/87/41 24/72/2 25/74/34
f 31/76/33 29/75/3 34/87/42 35/86/31
f 32/88/26 33/89/14 30/90/13 31/91/33
f 21/70/12 19/69/1 29/75/3 30/77/13
f 24/2/2 34/92/4 29/3/3
f 48/93/43 39/94/44 40/95/45 51/96/46
f 53/97/47 49/98/48 50/99/49 54/100/49
f 43/101/50 53/102/51 54/103/52 46/104/52
f 38/105/37 44/106/37 45/107/37 41/108/37
f 37/109/53 38/110/39 39/111/44
f 42/112/10 43/113/50 44/114/38
f 47/115/11 48/116/43 49/117/48
f 44/114/38 38/110/39 37/109/53 42/112/10
f 38/118/39 41/119/40 40/120/45 39/121/44
f 45/122/30 44/123/38 43/124/50 46/125/30
f 53/126/51 43/113/50 42/112/10 52/127/54
f 49/117/48 53/126/47 52/127/55 47/115/11
f 50/128/27 49/129/48 48/130/43 51/131/46
f 39/111/44 48/116/43 47/115/11 37/109/53
f 42/11/10 37/132/53 47/12/11
f 66/133/44 69/134/45 58/135/46 57/136/43
f 71/137/56 72/138/57 68/139/57 67/140/58
f 61/141/59 64/142/60 72/143/60 71/144/61
f 56/145/22 59/146/22 63/147/22 62/148/22
f 55/149/7 57/150/43 56/151/25
f 60/152/8 62/153/24 61/154/59
f 65/155/9 67/156/58 66/157/44
f 62/153/24 60/152/8 55/149/7 56/151/25
f 56/158/25 57/159/43 58/160/46 59/161/27
f 63/162/26 64/163/26 61/164/59 62/165/24
f 71/166/61 70/167/62 60/152/8 61/154/59
f 67/156/58 65/155/9 70/167/63 71/166/56
f 68/168/40 69/169/45 66/170/44 67/171/58
f 57/150/43 55/149/7 65/155/9 66/157/44
f 60/8/8 70/172/4 65/9/9
f 84/173/13 86/174/64 75/175/65 73/176/12
f 89/177/22 91/178/22 87/179/22 83/180/22
f 90/181/66 80/182/67 76/183/68 85/184/69
f 74/185/37 77/186/37 82/187/37 78/188/37
f 79/189/44 81/190/70 92/191/71 88/192/43
f 94/193/1 73/194/12 74/195/38
f 75/196/65 76/197/68 77/198/72
f 93/199/53 78/200/39 79/201/44
f 80/202/67 81/203/70 82/204/73
f 96/205/23 83/206/24 84/207/13
f 85/208/69 86/209/64 87/210/74
f 95/211/7 88/212/43 89/213/25
f 90/214/66 91/215/75 92/216/71
f 93/199/53 94/193/1 74/195/38 78/200/39
f 73/194/12 75/217/65 77/218/72 74/195/38
f 76/197/68 80/202/67 82/204/73 77/198/72
f 81/219/70 79/201/44 78/200/39 82/220/73
f 95/211/7 93/199/53 79/201/44 88/212/43
f 80/202/67 90/214/66 92/216/71 81/203/70
f 91/221/75 89/213/25 88/212/43 92/222/71
f 96/205/23 95/211/7 89/213/25 83/206/24
f 90/214/66 85/208/69 87/210/74 91/215/75
f 86/223/64 84/207/13 83/206/24 87/224/74
f 94/193/1 96/205/23 84/207/13 73/194/12
f 85/208/69 76/197/68 75/196/65 86/209/64
f 94/225/1 93/226/53 95/227/7 96/228/23
f 108/229/13 110/230/64 99/231/65 97/232/12
f 113/233/76 115/234/77 111/235/78 107/236/79
f 114/237/66 104/238/67 100/239/68 109/240/69
f 98/241/80 101/242/81 106/243/82 102/244/83
f 103/245/44 105/246/70 116/247/71 112/248/43
f 118/249/84 97/250/12 98/251/80
f 99/252/65 100/253/68 101/254/81
f 117/255/85 102/256/83 103/257/44
f 104/258/67 105/259/70 106/260/82
f 120/261/86 107/262/79 108/263/13
f 109/264/69 110/265/64 111/266/78
f 119/267/87 112/268/43 113/269/76
f 114/270/66 115/271/77 116/272/71
f 117/255/85 118/249/84 98/251/80 102/256/83
f 97/250/12 99/273/65 101/274/81 98/251/80
f 100/253/68 104/258/67 106/260/82 101/254/81
f 105/275/70 103/257/44 102/256/83 106/276/82
f 119/267/87 117/255/85 103/257/44 112/268/43
f 104/258/67 114/270/66 116/272/71 105/259/70
f 115/277/77 113/269/76 112/268/43 116/278/71
f 120/261/86 119/267/87 113/269/76 107/262/79
f 114/270/66 109/264/69 111/266/78 115/271/77
f 110/279/64 108/263/13 107/262/79 111/280/78
f 118/249/84 120/261/86 108/263/13 97/250/12
f 109/264/69 100/253/68 99/252/65 110/265/64
f 118/281/4 117/282/4 119/283/4 120/284/4
f 121/285/88 123/286/88 124/287/88 122/288/88
f 123/289/88 125/290/88 126/291/88 124/292/88
f 126/291/89 131/293/89 130/294/89 124/292/89
f 125/290/22 132/295/22 131/293/22 126/291/22
f 124/287/89 130/296/89 128/297/89 122/288/89
f 122/288/37 128/297/37 127/298/37 121/285/37
f 123/289/90 129/299/90 132/295/90 125/290/90
f 121/285/90 127/298/90 129/300/90 123/286/90
f 144/301/90 146/302/90 135/303/90 133/304/90
f 149/305/76 151/306/77 147/307/78 143/308/79
f 150/309/66 140/310/67 136/311/68 145/312/69
f 134/313/80 137/314/81 142/315/82 138/316/83
f 139/317/89 141/318/89 152/319/89 148/320/89
f 154/321/1 133/322/91 134/323/80
f 135/324/92 136/325/68 137/326/81
f 153/327/53 138/328/83 139/329/93
f 140/330/67 141/331/94 142/332/82
f 156/333/23 143/334/79 144/335/95
f 145/336/69 146/337/96 147/338/78
f 155/339/7 148/340/97 149/341/76
f 150/342/66 151/343/77 152/344/98
f 153/327/53 154/321/1 134/323/80 138/328/83
f 133/322/91 135/345/92 137/346/81 134/323/80
f 136/325/68 140/330/67 142/332/82 137/326/81
f 141/347/94 139/329/93 138/328/83 142/348/82
f 155/339/7 153/327/53 139/329/93 148/340/97
f 140/330/67 150/342/66 152/344/98 141/331/94
f 151/349/77 149/341/76 148/340/97 152/350/98
f 156/333/23 155/339/7 149/341/76 143/334/79
f 150/342/66 145/336/69 147/338/78 151/343/77
f 146/351/96 144/335/95 143/334/79 147/352/78
f 154/321/1 156/333/23 144/335/95 133/322/91
f 145/336/69 136/325/68 135/324/92 146/337/96
f 154/353/1 153/354/53 155/355/7 156/356/23
